<?xml version="1.0" encoding="UTF-8" standalone="no"?>
<!DOCTYPE svg PUBLIC "-//W3C//DTD SVG 1.1//EN"
 "http://www.w3.org/Graphics/SVG/1.1/DTD/svg11.dtd">
<!-- Generated by graphviz version 2.47.0 (20210316.0004)
 -->
<!-- Title: dbml Pages: 1 -->
<svg width="2780pt" height="2084pt"
 viewBox="0.00 0.00 2780.38 2084.05" xmlns="http://www.w3.org/2000/svg" xmlns:xlink="http://www.w3.org/1999/xlink">
<g id="graph0" class="graph" transform="scale(1 1) rotate(0) translate(4 2080.05)">
<title>dbml</title>
<!-- Aircraft -->
<g id="Aircraft" class="node">
<title>Aircraft</title>
<ellipse fill="none" stroke="black" stroke-width="0" cx="2460.54" cy="-1369.09" rx="311.67" ry="172.57"/>
<polygon fill="#1d71b8" stroke="transparent" points="2242.54,-1429.09 2242.54,-1489.09 2679.54,-1489.09 2679.54,-1429.09 2242.54,-1429.09"/>
<polygon fill="none" stroke="#29235c" points="2242.54,-1429.09 2242.54,-1489.09 2679.54,-1489.09 2679.54,-1429.09 2242.54,-1429.09"/>
<text text-anchor="start" x="2348.13" y="-1450.29" font-family="Helvetica,sans-Serif" font-weight="bold" font-size="32.00" fill="#ffffff"> &#160;&#160;&#160;&#160;&#160;&#160;Aircraft &#160;&#160;&#160;&#160;&#160;&#160;</text>
<polygon fill="#e7e2dd" stroke="transparent" points="2242.54,-1369.09 2242.54,-1429.09 2679.54,-1429.09 2679.54,-1369.09 2242.54,-1369.09"/>
<polygon fill="none" stroke="#29235c" points="2242.54,-1369.09 2242.54,-1429.09 2679.54,-1429.09 2679.54,-1369.09 2242.54,-1369.09"/>
<text text-anchor="start" x="2253.54" y="-1390.29" font-family="Helvetica,sans-Serif" font-weight="bold" font-size="32.00" fill="#29235c">id</text>
<text text-anchor="start" x="2278.43" y="-1390.29" font-family="Helvetica,sans-Serif" font-size="32.00" fill="#29235c"> &#160;&#160;&#160;</text>
<text text-anchor="start" x="2526.33" y="-1390.29" font-family="Helvetica,sans-Serif" font-style="italic" font-size="32.00" fill="#29235c">INTEGER</text>
<polygon fill="#e7e2dd" stroke="transparent" points="2242.54,-1309.09 2242.54,-1369.09 2679.54,-1369.09 2679.54,-1309.09 2242.54,-1309.09"/>
<polygon fill="none" stroke="#29235c" points="2242.54,-1309.09 2242.54,-1369.09 2679.54,-1369.09 2679.54,-1309.09 2242.54,-1309.09"/>
<text text-anchor="start" x="2253.54" y="-1329.29" font-family="Helvetica,sans-Serif" font-size="32.00" fill="#29235c">model &#160;&#160;&#160;</text>
<text text-anchor="start" x="2512.12" y="-1330.29" font-family="Helvetica,sans-Serif" font-style="italic" font-size="32.00" fill="#29235c">VARCHAR</text>
<polygon fill="#e7e2dd" stroke="transparent" points="2242.54,-1249.09 2242.54,-1309.09 2679.54,-1309.09 2679.54,-1249.09 2242.54,-1249.09"/>
<polygon fill="none" stroke="#29235c" points="2242.54,-1249.09 2242.54,-1309.09 2679.54,-1309.09 2679.54,-1249.09 2242.54,-1249.09"/>
<text text-anchor="start" x="2253.11" y="-1269.29" font-family="Helvetica,sans-Serif" font-size="32.00" fill="#29235c">seating_capacity &#160;&#160;&#160;</text>
<text text-anchor="start" x="2526.44" y="-1270.29" font-family="Helvetica,sans-Serif" font-style="italic" font-size="32.00" fill="#29235c">INTEGER</text>
<polygon fill="none" stroke="#29235c" stroke-width="2" points="2241.04,-1248.09 2241.04,-1490.09 2680.04,-1490.09 2680.04,-1248.09 2241.04,-1248.09"/>
</g>
<!-- AircraftMaintenance -->
<g id="AircraftMaintenance" class="node">
<title>AircraftMaintenance</title>
<ellipse fill="none" stroke="black" stroke-width="0" cx="1742.89" cy="-1431.09" rx="321.05" ry="257.27"/>
<polygon fill="#1d71b8" stroke="transparent" points="1517.89,-1551.09 1517.89,-1611.09 1967.89,-1611.09 1967.89,-1551.09 1517.89,-1551.09"/>
<polygon fill="none" stroke="#29235c" points="1517.89,-1551.09 1517.89,-1611.09 1967.89,-1611.09 1967.89,-1551.09 1517.89,-1551.09"/>
<text text-anchor="start" x="1538.4" y="-1572.29" font-family="Helvetica,sans-Serif" font-weight="bold" font-size="32.00" fill="#ffffff"> &#160;&#160;&#160;&#160;&#160;&#160;AircraftMaintenance &#160;&#160;&#160;&#160;&#160;&#160;</text>
<polygon fill="#e7e2dd" stroke="transparent" points="1517.89,-1491.09 1517.89,-1551.09 1967.89,-1551.09 1967.89,-1491.09 1517.89,-1491.09"/>
<polygon fill="none" stroke="#29235c" points="1517.89,-1491.09 1517.89,-1551.09 1967.89,-1551.09 1967.89,-1491.09 1517.89,-1491.09"/>
<text text-anchor="start" x="1528.89" y="-1512.29" font-family="Helvetica,sans-Serif" font-weight="bold" font-size="32.00" fill="#29235c">id</text>
<text text-anchor="start" x="1553.78" y="-1512.29" font-family="Helvetica,sans-Serif" font-size="32.00" fill="#29235c"> &#160;&#160;&#160;</text>
<text text-anchor="start" x="1814.68" y="-1512.29" font-family="Helvetica,sans-Serif" font-style="italic" font-size="32.00" fill="#29235c">INTEGER</text>
<polygon fill="#e7e2dd" stroke="transparent" points="1517.89,-1431.09 1517.89,-1491.09 1967.89,-1491.09 1967.89,-1431.09 1517.89,-1431.09"/>
<polygon fill="none" stroke="#29235c" points="1517.89,-1431.09 1517.89,-1491.09 1967.89,-1491.09 1967.89,-1431.09 1517.89,-1431.09"/>
<text text-anchor="start" x="1528.89" y="-1451.29" font-family="Helvetica,sans-Serif" font-size="32.00" fill="#29235c">aircraft_id &#160;&#160;&#160;</text>
<text text-anchor="start" x="1814.68" y="-1452.29" font-family="Helvetica,sans-Serif" font-style="italic" font-size="32.00" fill="#29235c">INTEGER</text>
<polygon fill="#e7e2dd" stroke="transparent" points="1517.89,-1371.09 1517.89,-1431.09 1967.89,-1431.09 1967.89,-1371.09 1517.89,-1371.09"/>
<polygon fill="none" stroke="#29235c" points="1517.89,-1371.09 1517.89,-1431.09 1967.89,-1431.09 1967.89,-1371.09 1517.89,-1371.09"/>
<text text-anchor="start" x="1528.76" y="-1391.29" font-family="Helvetica,sans-Serif" font-size="32.00" fill="#29235c">date_of_maintenance &#160;&#160;&#160;</text>
<text text-anchor="start" x="1871.73" y="-1392.29" font-family="Helvetica,sans-Serif" font-style="italic" font-size="32.00" fill="#29235c">DATE</text>
<polygon fill="#e7e2dd" stroke="transparent" points="1517.89,-1311.09 1517.89,-1371.09 1967.89,-1371.09 1967.89,-1311.09 1517.89,-1311.09"/>
<polygon fill="none" stroke="#29235c" points="1517.89,-1311.09 1517.89,-1371.09 1967.89,-1371.09 1967.89,-1311.09 1517.89,-1311.09"/>
<text text-anchor="start" x="1528.89" y="-1331.29" font-family="Helvetica,sans-Serif" font-size="32.00" fill="#29235c">next_due_date &#160;&#160;&#160;</text>
<text text-anchor="start" x="1871.56" y="-1332.29" font-family="Helvetica,sans-Serif" font-style="italic" font-size="32.00" fill="#29235c">DATE</text>
<polygon fill="#e7e2dd" stroke="transparent" points="1517.89,-1251.09 1517.89,-1311.09 1967.89,-1311.09 1967.89,-1251.09 1517.89,-1251.09"/>
<polygon fill="none" stroke="#29235c" points="1517.89,-1251.09 1517.89,-1311.09 1967.89,-1311.09 1967.89,-1251.09 1517.89,-1251.09"/>
<text text-anchor="start" x="1528.89" y="-1271.29" font-family="Helvetica,sans-Serif" font-size="32.00" fill="#29235c">remarks &#160;&#160;&#160;</text>
<text text-anchor="start" x="1800.47" y="-1272.29" font-family="Helvetica,sans-Serif" font-style="italic" font-size="32.00" fill="#29235c">VARCHAR</text>
<polygon fill="none" stroke="#29235c" stroke-width="2" points="1516.89,-1250.09 1516.89,-1612.09 1968.89,-1612.09 1968.89,-1250.09 1516.89,-1250.09"/>
</g>
<!-- AircraftMaintenance&#45;&gt;Aircraft -->
<!-- AircraftMaintenance&#45;&gt;Aircraft -->
<g id="edge2" class="edge">
<title>AircraftMaintenance:e&#45;&gt;Aircraft:w</title>
<path fill="none" stroke="#29235c" stroke-width="3" d="M1968.89,-1461.09C2089.65,-1461.09 2115.83,-1402.55 2231.22,-1399.24"/>
<polygon fill="#29235c" stroke="#29235c" stroke-width="3" points="2231.59,-1402.73 2241.54,-1399.09 2231.5,-1395.73 2231.59,-1402.73"/>
<text text-anchor="middle" x="2247.77" y="-1370.29" font-family="Helvetica,sans-Serif" font-size="32.00" fill="#29235c">*</text>
<text text-anchor="middle" x="1960" y="-1432.29" font-family="Helvetica,sans-Serif" font-size="32.00" fill="#29235c">1</text>
</g>
<!-- Airline -->
<g id="Airline" class="node">
<title>Airline</title>
<ellipse fill="none" stroke="black" stroke-width="0" cx="296.98" cy="-1456.09" rx="229.62" ry="172.57"/>
<polygon fill="#1d71b8" stroke="transparent" points="136.98,-1516.09 136.98,-1576.09 457.98,-1576.09 457.98,-1516.09 136.98,-1516.09"/>
<polygon fill="none" stroke="#29235c" points="136.98,-1516.09 136.98,-1576.09 457.98,-1576.09 457.98,-1516.09 136.98,-1516.09"/>
<text text-anchor="start" x="190.8" y="-1537.29" font-family="Helvetica,sans-Serif" font-weight="bold" font-size="32.00" fill="#ffffff"> &#160;&#160;&#160;&#160;&#160;&#160;Airline &#160;&#160;&#160;&#160;&#160;&#160;</text>
<polygon fill="#e7e2dd" stroke="transparent" points="136.98,-1456.09 136.98,-1516.09 457.98,-1516.09 457.98,-1456.09 136.98,-1456.09"/>
<polygon fill="none" stroke="#29235c" points="136.98,-1456.09 136.98,-1516.09 457.98,-1516.09 457.98,-1456.09 136.98,-1456.09"/>
<text text-anchor="start" x="147.98" y="-1477.29" font-family="Helvetica,sans-Serif" font-weight="bold" font-size="32.00" fill="#29235c">id</text>
<text text-anchor="start" x="172.87" y="-1477.29" font-family="Helvetica,sans-Serif" font-size="32.00" fill="#29235c"> &#160;&#160;&#160;</text>
<text text-anchor="start" x="304.77" y="-1477.29" font-family="Helvetica,sans-Serif" font-style="italic" font-size="32.00" fill="#29235c">INTEGER</text>
<polygon fill="#e7e2dd" stroke="transparent" points="136.98,-1396.09 136.98,-1456.09 457.98,-1456.09 457.98,-1396.09 136.98,-1396.09"/>
<polygon fill="none" stroke="#29235c" points="136.98,-1396.09 136.98,-1456.09 457.98,-1456.09 457.98,-1396.09 136.98,-1396.09"/>
<text text-anchor="start" x="147.98" y="-1416.29" font-family="Helvetica,sans-Serif" font-size="32.00" fill="#29235c">name &#160;&#160;&#160;</text>
<text text-anchor="start" x="290.56" y="-1417.29" font-family="Helvetica,sans-Serif" font-style="italic" font-size="32.00" fill="#29235c">VARCHAR</text>
<polygon fill="#e7e2dd" stroke="transparent" points="136.98,-1336.09 136.98,-1396.09 457.98,-1396.09 457.98,-1336.09 136.98,-1336.09"/>
<polygon fill="none" stroke="#29235c" points="136.98,-1336.09 136.98,-1396.09 457.98,-1396.09 457.98,-1336.09 136.98,-1336.09"/>
<text text-anchor="start" x="147.52" y="-1356.29" font-family="Helvetica,sans-Serif" font-size="32.00" fill="#29235c">code &#160;&#160;&#160;</text>
<text text-anchor="start" x="251.72" y="-1357.29" font-family="Helvetica,sans-Serif" font-style="italic" font-size="32.00" fill="#29235c">VARCHAR(3)</text>
<polygon fill="none" stroke="#29235c" stroke-width="2" points="135.48,-1335.09 135.48,-1577.09 458.48,-1577.09 458.48,-1335.09 135.48,-1335.09"/>
</g>
<!-- Airport -->
<g id="Airport" class="node">
<title>Airport</title>
<ellipse fill="none" stroke="black" stroke-width="0" cx="2460.54" cy="-903.09" rx="231.45" ry="214.92"/>
<polygon fill="#1d71b8" stroke="transparent" points="2299.54,-993.09 2299.54,-1053.09 2622.54,-1053.09 2622.54,-993.09 2299.54,-993.09"/>
<polygon fill="none" stroke="#29235c" points="2299.54,-993.09 2299.54,-1053.09 2622.54,-1053.09 2622.54,-993.09 2299.54,-993.09"/>
<text text-anchor="start" x="2351.69" y="-1014.29" font-family="Helvetica,sans-Serif" font-weight="bold" font-size="32.00" fill="#ffffff"> &#160;&#160;&#160;&#160;&#160;&#160;Airport &#160;&#160;&#160;&#160;&#160;&#160;</text>
<polygon fill="#e7e2dd" stroke="transparent" points="2299.54,-933.09 2299.54,-993.09 2622.54,-993.09 2622.54,-933.09 2299.54,-933.09"/>
<polygon fill="none" stroke="#29235c" points="2299.54,-933.09 2299.54,-993.09 2622.54,-993.09 2622.54,-933.09 2299.54,-933.09"/>
<text text-anchor="start" x="2310.54" y="-954.29" font-family="Helvetica,sans-Serif" font-weight="bold" font-size="32.00" fill="#29235c">id</text>
<text text-anchor="start" x="2335.43" y="-954.29" font-family="Helvetica,sans-Serif" font-size="32.00" fill="#29235c"> &#160;&#160;&#160;</text>
<text text-anchor="start" x="2469.33" y="-954.29" font-family="Helvetica,sans-Serif" font-style="italic" font-size="32.00" fill="#29235c">INTEGER</text>
<polygon fill="#e7e2dd" stroke="transparent" points="2299.54,-873.09 2299.54,-933.09 2622.54,-933.09 2622.54,-873.09 2299.54,-873.09"/>
<polygon fill="none" stroke="#29235c" points="2299.54,-873.09 2299.54,-933.09 2622.54,-933.09 2622.54,-873.09 2299.54,-873.09"/>
<text text-anchor="start" x="2310.54" y="-893.29" font-family="Helvetica,sans-Serif" font-size="32.00" fill="#29235c">name &#160;&#160;&#160;</text>
<text text-anchor="start" x="2455.12" y="-894.29" font-family="Helvetica,sans-Serif" font-style="italic" font-size="32.00" fill="#29235c">VARCHAR</text>
<polygon fill="#e7e2dd" stroke="transparent" points="2299.54,-813.09 2299.54,-873.09 2622.54,-873.09 2622.54,-813.09 2299.54,-813.09"/>
<polygon fill="none" stroke="#29235c" points="2299.54,-813.09 2299.54,-873.09 2622.54,-873.09 2622.54,-813.09 2299.54,-813.09"/>
<text text-anchor="start" x="2310.13" y="-833.29" font-family="Helvetica,sans-Serif" font-size="32.00" fill="#29235c">location &#160;&#160;&#160;</text>
<text text-anchor="start" x="2455.33" y="-834.29" font-family="Helvetica,sans-Serif" font-style="italic" font-size="32.00" fill="#29235c">VARCHAR</text>
<polygon fill="#e7e2dd" stroke="transparent" points="2299.54,-753.09 2299.54,-813.09 2622.54,-813.09 2622.54,-753.09 2299.54,-753.09"/>
<polygon fill="none" stroke="#29235c" points="2299.54,-753.09 2299.54,-813.09 2622.54,-813.09 2622.54,-753.09 2299.54,-753.09"/>
<text text-anchor="start" x="2310.54" y="-773.29" font-family="Helvetica,sans-Serif" font-size="32.00" fill="#29235c">code &#160;&#160;&#160;</text>
<text text-anchor="start" x="2416.02" y="-774.29" font-family="Helvetica,sans-Serif" font-style="italic" font-size="32.00" fill="#29235c">VARCHAR(3)</text>
<polygon fill="none" stroke="#29235c" stroke-width="2" points="2298.04,-752.09 2298.04,-1054.09 2623.04,-1054.09 2623.04,-752.09 2298.04,-752.09"/>
</g>
<!-- AirportFacility -->
<g id="AirportFacility" class="node">
<title>AirportFacility</title>
<ellipse fill="none" stroke="black" stroke-width="0" cx="1742.89" cy="-238.09" rx="271.56" ry="214.92"/>
<polygon fill="#1d71b8" stroke="transparent" points="1552.89,-328.09 1552.89,-388.09 1932.89,-388.09 1932.89,-328.09 1552.89,-328.09"/>
<polygon fill="none" stroke="#29235c" points="1552.89,-328.09 1552.89,-388.09 1932.89,-388.09 1932.89,-328.09 1552.89,-328.09"/>
<text text-anchor="start" x="1583.77" y="-349.29" font-family="Helvetica,sans-Serif" font-weight="bold" font-size="32.00" fill="#ffffff"> &#160;&#160;&#160;&#160;&#160;&#160;AirportFacility &#160;&#160;&#160;&#160;&#160;&#160;</text>
<polygon fill="#e7e2dd" stroke="transparent" points="1552.89,-268.09 1552.89,-328.09 1932.89,-328.09 1932.89,-268.09 1552.89,-268.09"/>
<polygon fill="none" stroke="#29235c" points="1552.89,-268.09 1552.89,-328.09 1932.89,-328.09 1932.89,-268.09 1552.89,-268.09"/>
<text text-anchor="start" x="1563.89" y="-289.29" font-family="Helvetica,sans-Serif" font-weight="bold" font-size="32.00" fill="#29235c">id</text>
<text text-anchor="start" x="1588.78" y="-289.29" font-family="Helvetica,sans-Serif" font-size="32.00" fill="#29235c"> &#160;&#160;&#160;</text>
<text text-anchor="start" x="1779.68" y="-289.29" font-family="Helvetica,sans-Serif" font-style="italic" font-size="32.00" fill="#29235c">INTEGER</text>
<polygon fill="#e7e2dd" stroke="transparent" points="1552.89,-208.09 1552.89,-268.09 1932.89,-268.09 1932.89,-208.09 1552.89,-208.09"/>
<polygon fill="none" stroke="#29235c" points="1552.89,-208.09 1552.89,-268.09 1932.89,-268.09 1932.89,-208.09 1552.89,-208.09"/>
<text text-anchor="start" x="1563.89" y="-228.29" font-family="Helvetica,sans-Serif" font-size="32.00" fill="#29235c">airport_id &#160;&#160;&#160;</text>
<text text-anchor="start" x="1779.68" y="-229.29" font-family="Helvetica,sans-Serif" font-style="italic" font-size="32.00" fill="#29235c">INTEGER</text>
<polygon fill="#e7e2dd" stroke="transparent" points="1552.89,-148.09 1552.89,-208.09 1932.89,-208.09 1932.89,-148.09 1552.89,-148.09"/>
<polygon fill="none" stroke="#29235c" points="1552.89,-148.09 1552.89,-208.09 1932.89,-208.09 1932.89,-148.09 1552.89,-148.09"/>
<text text-anchor="start" x="1563.54" y="-168.29" font-family="Helvetica,sans-Serif" font-size="32.00" fill="#29235c">facility_type &#160;&#160;&#160;</text>
<text text-anchor="start" x="1765.68" y="-169.29" font-family="Helvetica,sans-Serif" font-style="italic" font-size="32.00" fill="#29235c">VARCHAR</text>
<polygon fill="#e7e2dd" stroke="transparent" points="1552.89,-88.09 1552.89,-148.09 1932.89,-148.09 1932.89,-88.09 1552.89,-88.09"/>
<polygon fill="none" stroke="#29235c" points="1552.89,-88.09 1552.89,-148.09 1932.89,-148.09 1932.89,-88.09 1552.89,-88.09"/>
<text text-anchor="start" x="1563.89" y="-108.29" font-family="Helvetica,sans-Serif" font-size="32.00" fill="#29235c">description &#160;&#160;&#160;</text>
<text text-anchor="start" x="1765.47" y="-109.29" font-family="Helvetica,sans-Serif" font-style="italic" font-size="32.00" fill="#29235c">VARCHAR</text>
<polygon fill="none" stroke="#29235c" stroke-width="2" points="1551.89,-87.09 1551.89,-389.09 1933.89,-389.09 1933.89,-87.09 1551.89,-87.09"/>
</g>
<!-- AirportFacility&#45;&gt;Airport -->
<!-- AirportFacility&#45;&gt;Airport -->
<g id="edge4" class="edge">
<title>AirportFacility:e&#45;&gt;Airport:w</title>
<path fill="none" stroke="#29235c" stroke-width="3" d="M1933.89,-238.09C2061.28,-238.09 2050.03,-351.19 2112.71,-462.09 2227.86,-665.81 2065.93,-954.49 2288.37,-962.9"/>
<polygon fill="#29235c" stroke="#29235c" stroke-width="3" points="2288.48,-966.4 2298.54,-963.09 2288.61,-959.41 2288.48,-966.4"/>
<text text-anchor="middle" x="2304.77" y="-934.29" font-family="Helvetica,sans-Serif" font-size="32.00" fill="#29235c">*</text>
<text text-anchor="middle" x="1925" y="-209.29" font-family="Helvetica,sans-Serif" font-size="32.00" fill="#29235c">1</text>
</g>
<!-- Baggage -->
<g id="Baggage" class="node">
<title>Baggage</title>
<ellipse fill="none" stroke="black" stroke-width="0" cx="296.98" cy="-518.09" rx="296.97" ry="214.92"/>
<polygon fill="#1d71b8" stroke="transparent" points="88.98,-608.09 88.98,-668.09 504.98,-668.09 504.98,-608.09 88.98,-608.09"/>
<polygon fill="none" stroke="#29235c" points="88.98,-608.09 88.98,-668.09 504.98,-668.09 504.98,-608.09 88.98,-608.09"/>
<text text-anchor="start" x="170.7" y="-629.29" font-family="Helvetica,sans-Serif" font-weight="bold" font-size="32.00" fill="#ffffff"> &#160;&#160;&#160;&#160;&#160;&#160;Baggage &#160;&#160;&#160;&#160;&#160;&#160;</text>
<polygon fill="#e7e2dd" stroke="transparent" points="88.98,-548.09 88.98,-608.09 504.98,-608.09 504.98,-548.09 88.98,-548.09"/>
<polygon fill="none" stroke="#29235c" points="88.98,-548.09 88.98,-608.09 504.98,-608.09 504.98,-548.09 88.98,-548.09"/>
<text text-anchor="start" x="99.98" y="-569.29" font-family="Helvetica,sans-Serif" font-weight="bold" font-size="32.00" fill="#29235c">id</text>
<text text-anchor="start" x="124.87" y="-569.29" font-family="Helvetica,sans-Serif" font-size="32.00" fill="#29235c"> &#160;&#160;&#160;</text>
<text text-anchor="start" x="351.77" y="-569.29" font-family="Helvetica,sans-Serif" font-style="italic" font-size="32.00" fill="#29235c">INTEGER</text>
<polygon fill="#e7e2dd" stroke="transparent" points="88.98,-488.09 88.98,-548.09 504.98,-548.09 504.98,-488.09 88.98,-488.09"/>
<polygon fill="none" stroke="#29235c" points="88.98,-488.09 88.98,-548.09 504.98,-548.09 504.98,-488.09 88.98,-488.09"/>
<text text-anchor="start" x="99.98" y="-508.29" font-family="Helvetica,sans-Serif" font-size="32.00" fill="#29235c">passenger_id &#160;&#160;&#160;</text>
<text text-anchor="start" x="351.77" y="-509.29" font-family="Helvetica,sans-Serif" font-style="italic" font-size="32.00" fill="#29235c">INTEGER</text>
<polygon fill="#e7e2dd" stroke="transparent" points="88.98,-428.09 88.98,-488.09 504.98,-488.09 504.98,-428.09 88.98,-428.09"/>
<polygon fill="none" stroke="#29235c" points="88.98,-428.09 88.98,-488.09 504.98,-488.09 504.98,-428.09 88.98,-428.09"/>
<text text-anchor="start" x="99.98" y="-448.29" font-family="Helvetica,sans-Serif" font-size="32.00" fill="#29235c">weight &#160;&#160;&#160;</text>
<text text-anchor="start" x="351.77" y="-449.29" font-family="Helvetica,sans-Serif" font-style="italic" font-size="32.00" fill="#29235c">INTEGER</text>
<polygon fill="#e7e2dd" stroke="transparent" points="88.98,-368.09 88.98,-428.09 504.98,-428.09 504.98,-368.09 88.98,-368.09"/>
<polygon fill="none" stroke="#29235c" points="88.98,-368.09 88.98,-428.09 504.98,-428.09 504.98,-368.09 88.98,-368.09"/>
<text text-anchor="start" x="99.81" y="-388.29" font-family="Helvetica,sans-Serif" font-size="32.00" fill="#29235c">baggage_type &#160;&#160;&#160;</text>
<text text-anchor="start" x="337.77" y="-389.29" font-family="Helvetica,sans-Serif" font-style="italic" font-size="32.00" fill="#29235c">VARCHAR</text>
<polygon fill="none" stroke="#29235c" stroke-width="2" points="87.98,-367.09 87.98,-669.09 505.98,-669.09 505.98,-367.09 87.98,-367.09"/>
</g>
<!-- Passenger -->
<g id="Passenger" class="node">
<title>Passenger</title>
<ellipse fill="none" stroke="black" stroke-width="0" cx="983.52" cy="-873.09" rx="329.52" ry="257.27"/>
<polygon fill="#1d71b8" stroke="transparent" points="752.52,-993.09 752.52,-1053.09 1214.52,-1053.09 1214.52,-993.09 752.52,-993.09"/>
<polygon fill="none" stroke="#29235c" points="752.52,-993.09 752.52,-1053.09 1214.52,-1053.09 1214.52,-993.09 752.52,-993.09"/>
<text text-anchor="start" x="844.8" y="-1014.29" font-family="Helvetica,sans-Serif" font-weight="bold" font-size="32.00" fill="#ffffff"> &#160;&#160;&#160;&#160;&#160;&#160;Passenger &#160;&#160;&#160;&#160;&#160;&#160;</text>
<polygon fill="#e7e2dd" stroke="transparent" points="752.52,-933.09 752.52,-993.09 1214.52,-993.09 1214.52,-933.09 752.52,-933.09"/>
<polygon fill="none" stroke="#29235c" points="752.52,-933.09 752.52,-993.09 1214.52,-993.09 1214.52,-933.09 752.52,-933.09"/>
<text text-anchor="start" x="763.52" y="-954.29" font-family="Helvetica,sans-Serif" font-weight="bold" font-size="32.00" fill="#29235c">id</text>
<text text-anchor="start" x="788.41" y="-954.29" font-family="Helvetica,sans-Serif" font-size="32.00" fill="#29235c"> &#160;&#160;&#160;</text>
<text text-anchor="start" x="1061.31" y="-954.29" font-family="Helvetica,sans-Serif" font-style="italic" font-size="32.00" fill="#29235c">INTEGER</text>
<polygon fill="#e7e2dd" stroke="transparent" points="752.52,-873.09 752.52,-933.09 1214.52,-933.09 1214.52,-873.09 752.52,-873.09"/>
<polygon fill="none" stroke="#29235c" points="752.52,-873.09 752.52,-933.09 1214.52,-933.09 1214.52,-873.09 752.52,-873.09"/>
<text text-anchor="start" x="763.52" y="-893.29" font-family="Helvetica,sans-Serif" font-size="32.00" fill="#29235c">name &#160;&#160;&#160;</text>
<text text-anchor="start" x="1047.1" y="-894.29" font-family="Helvetica,sans-Serif" font-style="italic" font-size="32.00" fill="#29235c">VARCHAR</text>
<polygon fill="#e7e2dd" stroke="transparent" points="752.52,-813.09 752.52,-873.09 1214.52,-873.09 1214.52,-813.09 752.52,-813.09"/>
<polygon fill="none" stroke="#29235c" points="752.52,-813.09 752.52,-873.09 1214.52,-873.09 1214.52,-813.09 752.52,-813.09"/>
<text text-anchor="start" x="763.26" y="-833.29" font-family="Helvetica,sans-Serif" font-size="32.00" fill="#29235c">passport_number &#160;&#160;&#160;</text>
<text text-anchor="start" x="1047.31" y="-834.29" font-family="Helvetica,sans-Serif" font-style="italic" font-size="32.00" fill="#29235c">VARCHAR</text>
<polygon fill="#e7e2dd" stroke="transparent" points="752.52,-753.09 752.52,-813.09 1214.52,-813.09 1214.52,-753.09 752.52,-753.09"/>
<polygon fill="none" stroke="#29235c" points="752.52,-753.09 752.52,-813.09 1214.52,-813.09 1214.52,-753.09 752.52,-753.09"/>
<text text-anchor="start" x="763.52" y="-773.29" font-family="Helvetica,sans-Serif" font-size="32.00" fill="#29235c">birthdate &#160;&#160;&#160;</text>
<text text-anchor="start" x="1118.19" y="-774.29" font-family="Helvetica,sans-Serif" font-style="italic" font-size="32.00" fill="#29235c">DATE</text>
<polygon fill="#e7e2dd" stroke="transparent" points="752.52,-693.09 752.52,-753.09 1214.52,-753.09 1214.52,-693.09 752.52,-693.09"/>
<polygon fill="none" stroke="#29235c" points="752.52,-693.09 752.52,-753.09 1214.52,-753.09 1214.52,-693.09 752.52,-693.09"/>
<text text-anchor="start" x="763.52" y="-713.29" font-family="Helvetica,sans-Serif" font-size="32.00" fill="#29235c">flight_id &#160;&#160;&#160;</text>
<text text-anchor="start" x="1061.31" y="-714.29" font-family="Helvetica,sans-Serif" font-style="italic" font-size="32.00" fill="#29235c">INTEGER</text>
<polygon fill="none" stroke="#29235c" stroke-width="2" points="751.52,-692.09 751.52,-1054.09 1215.52,-1054.09 1215.52,-692.09 751.52,-692.09"/>
</g>
<!-- Baggage&#45;&gt;Passenger -->
<!-- Baggage&#45;&gt;Passenger -->
<g id="edge6" class="edge">
<title>Baggage:e&#45;&gt;Passenger:w</title>
<path fill="none" stroke="#29235c" stroke-width="3" d="M505.98,-518.09C728.34,-518.09 531.98,-949.29 741.25,-962.77"/>
<polygon fill="#29235c" stroke="#29235c" stroke-width="3" points="741.42,-966.27 751.52,-963.09 741.64,-959.28 741.42,-966.27"/>
<text text-anchor="middle" x="757.75" y="-934.29" font-family="Helvetica,sans-Serif" font-size="32.00" fill="#29235c">*</text>
<text text-anchor="middle" x="497.09" y="-489.29" font-family="Helvetica,sans-Serif" font-size="32.00" fill="#29235c">1</text>
</g>
<!-- Flight -->
<g id="Flight" class="node">
<title>Flight</title>
<ellipse fill="none" stroke="black" stroke-width="0" cx="1742.89" cy="-813.09" rx="369.63" ry="342.48"/>
<polygon fill="#1d71b8" stroke="transparent" points="1483.89,-993.09 1483.89,-1053.09 2002.89,-1053.09 2002.89,-993.09 1483.89,-993.09"/>
<polygon fill="none" stroke="#29235c" points="1483.89,-993.09 1483.89,-1053.09 2002.89,-1053.09 2002.89,-993.09 1483.89,-993.09"/>
<text text-anchor="start" x="1642.03" y="-1014.29" font-family="Helvetica,sans-Serif" font-weight="bold" font-size="32.00" fill="#ffffff"> &#160;&#160;&#160;&#160;&#160;&#160;Flight &#160;&#160;&#160;&#160;&#160;&#160;</text>
<polygon fill="#e7e2dd" stroke="transparent" points="1483.89,-933.09 1483.89,-993.09 2002.89,-993.09 2002.89,-933.09 1483.89,-933.09"/>
<polygon fill="none" stroke="#29235c" points="1483.89,-933.09 1483.89,-993.09 2002.89,-993.09 2002.89,-933.09 1483.89,-933.09"/>
<text text-anchor="start" x="1494.89" y="-954.29" font-family="Helvetica,sans-Serif" font-weight="bold" font-size="32.00" fill="#29235c">id</text>
<text text-anchor="start" x="1519.78" y="-954.29" font-family="Helvetica,sans-Serif" font-size="32.00" fill="#29235c"> &#160;&#160;&#160;</text>
<text text-anchor="start" x="1849.68" y="-954.29" font-family="Helvetica,sans-Serif" font-style="italic" font-size="32.00" fill="#29235c">INTEGER</text>
<polygon fill="#e7e2dd" stroke="transparent" points="1483.89,-873.09 1483.89,-933.09 2002.89,-933.09 2002.89,-873.09 1483.89,-873.09"/>
<polygon fill="none" stroke="#29235c" points="1483.89,-873.09 1483.89,-933.09 2002.89,-933.09 2002.89,-873.09 1483.89,-873.09"/>
<text text-anchor="start" x="1494.89" y="-893.29" font-family="Helvetica,sans-Serif" font-size="32.00" fill="#29235c">flight_number &#160;&#160;&#160;</text>
<text text-anchor="start" x="1835.47" y="-894.29" font-family="Helvetica,sans-Serif" font-style="italic" font-size="32.00" fill="#29235c">VARCHAR</text>
<polygon fill="#e7e2dd" stroke="transparent" points="1483.89,-813.09 1483.89,-873.09 2002.89,-873.09 2002.89,-813.09 1483.89,-813.09"/>
<polygon fill="none" stroke="#29235c" points="1483.89,-813.09 1483.89,-873.09 2002.89,-873.09 2002.89,-813.09 1483.89,-813.09"/>
<text text-anchor="start" x="1494.89" y="-833.29" font-family="Helvetica,sans-Serif" font-size="32.00" fill="#29235c">departure_airport_id &#160;&#160;&#160;</text>
<text text-anchor="start" x="1849.68" y="-834.29" font-family="Helvetica,sans-Serif" font-style="italic" font-size="32.00" fill="#29235c">INTEGER</text>
<polygon fill="#e7e2dd" stroke="transparent" points="1483.89,-753.09 1483.89,-813.09 2002.89,-813.09 2002.89,-753.09 1483.89,-753.09"/>
<polygon fill="none" stroke="#29235c" points="1483.89,-753.09 1483.89,-813.09 2002.89,-813.09 2002.89,-753.09 1483.89,-753.09"/>
<text text-anchor="start" x="1494.89" y="-773.29" font-family="Helvetica,sans-Serif" font-size="32.00" fill="#29235c">arrival_airport_id &#160;&#160;&#160;</text>
<text text-anchor="start" x="1849.68" y="-774.29" font-family="Helvetica,sans-Serif" font-style="italic" font-size="32.00" fill="#29235c">INTEGER</text>
<polygon fill="#e7e2dd" stroke="transparent" points="1483.89,-693.09 1483.89,-753.09 2002.89,-753.09 2002.89,-693.09 1483.89,-693.09"/>
<polygon fill="none" stroke="#29235c" points="1483.89,-693.09 1483.89,-753.09 2002.89,-753.09 2002.89,-693.09 1483.89,-693.09"/>
<text text-anchor="start" x="1494.83" y="-713.29" font-family="Helvetica,sans-Serif" font-size="32.00" fill="#29235c">scheduled_departure &#160;&#160;&#160;</text>
<text text-anchor="start" x="1830.51" y="-714.29" font-family="Helvetica,sans-Serif" font-style="italic" font-size="32.00" fill="#29235c">DATETIME</text>
<polygon fill="#e7e2dd" stroke="transparent" points="1483.89,-633.09 1483.89,-693.09 2002.89,-693.09 2002.89,-633.09 1483.89,-633.09"/>
<polygon fill="none" stroke="#29235c" points="1483.89,-633.09 1483.89,-693.09 2002.89,-693.09 2002.89,-633.09 1483.89,-633.09"/>
<text text-anchor="start" x="1494.89" y="-653.29" font-family="Helvetica,sans-Serif" font-size="32.00" fill="#29235c">scheduled_arrival &#160;&#160;&#160;</text>
<text text-anchor="start" x="1830.13" y="-654.29" font-family="Helvetica,sans-Serif" font-style="italic" font-size="32.00" fill="#29235c">DATETIME</text>
<polygon fill="#e7e2dd" stroke="transparent" points="1483.89,-573.09 1483.89,-633.09 2002.89,-633.09 2002.89,-573.09 1483.89,-573.09"/>
<polygon fill="none" stroke="#29235c" points="1483.89,-573.09 1483.89,-633.09 2002.89,-633.09 2002.89,-573.09 1483.89,-573.09"/>
<text text-anchor="start" x="1494.89" y="-593.29" font-family="Helvetica,sans-Serif" font-size="32.00" fill="#29235c">aircraft_id &#160;&#160;&#160;</text>
<text text-anchor="start" x="1849.68" y="-594.29" font-family="Helvetica,sans-Serif" font-style="italic" font-size="32.00" fill="#29235c">INTEGER</text>
<polygon fill="none" stroke="#29235c" stroke-width="2" points="1482.39,-572.09 1482.39,-1054.09 2003.39,-1054.09 2003.39,-572.09 1482.39,-572.09"/>
</g>
<!-- Passenger&#45;&gt;Flight -->
<!-- Passenger&#45;&gt;Flight -->
<g id="edge8" class="edge">
<title>Passenger:e&#45;&gt;Flight:w</title>
<path fill="none" stroke="#29235c" stroke-width="3" d="M1215.52,-723.09C1371.78,-723.09 1325.35,-952.89 1472.89,-962.76"/>
<polygon fill="#29235c" stroke="#29235c" stroke-width="3" points="1472.78,-966.26 1482.89,-963.09 1473.01,-959.26 1472.78,-966.26"/>
<text text-anchor="middle" x="1476.67" y="-934.29" font-family="Helvetica,sans-Serif" font-size="32.00" fill="#29235c">*</text>
<text text-anchor="middle" x="1224.42" y="-694.29" font-family="Helvetica,sans-Serif" font-size="32.00" fill="#29235c">1</text>
</g>
<!-- Booking -->
<g id="Booking" class="node">
<title>Booking</title>
<ellipse fill="none" stroke="black" stroke-width="0" cx="296.98" cy="-1008.09" rx="279.11" ry="257.27"/>
<polygon fill="#1d71b8" stroke="transparent" points="101.98,-1128.09 101.98,-1188.09 492.98,-1188.09 492.98,-1128.09 101.98,-1128.09"/>
<polygon fill="none" stroke="#29235c" points="101.98,-1128.09 101.98,-1188.09 492.98,-1188.09 492.98,-1128.09 101.98,-1128.09"/>
<text text-anchor="start" x="177.44" y="-1149.29" font-family="Helvetica,sans-Serif" font-weight="bold" font-size="32.00" fill="#ffffff"> &#160;&#160;&#160;&#160;&#160;&#160;Booking &#160;&#160;&#160;&#160;&#160;&#160;</text>
<polygon fill="#e7e2dd" stroke="transparent" points="101.98,-1068.09 101.98,-1128.09 492.98,-1128.09 492.98,-1068.09 101.98,-1068.09"/>
<polygon fill="none" stroke="#29235c" points="101.98,-1068.09 101.98,-1128.09 492.98,-1128.09 492.98,-1068.09 101.98,-1068.09"/>
<text text-anchor="start" x="112.98" y="-1089.29" font-family="Helvetica,sans-Serif" font-weight="bold" font-size="32.00" fill="#29235c">id</text>
<text text-anchor="start" x="137.87" y="-1089.29" font-family="Helvetica,sans-Serif" font-size="32.00" fill="#29235c"> &#160;&#160;&#160;</text>
<text text-anchor="start" x="339.77" y="-1089.29" font-family="Helvetica,sans-Serif" font-style="italic" font-size="32.00" fill="#29235c">INTEGER</text>
<polygon fill="#e7e2dd" stroke="transparent" points="101.98,-1008.09 101.98,-1068.09 492.98,-1068.09 492.98,-1008.09 101.98,-1008.09"/>
<polygon fill="none" stroke="#29235c" points="101.98,-1008.09 101.98,-1068.09 492.98,-1068.09 492.98,-1008.09 101.98,-1008.09"/>
<text text-anchor="start" x="112.67" y="-1028.29" font-family="Helvetica,sans-Serif" font-size="32.00" fill="#29235c">passenger_id &#160;&#160;&#160;</text>
<text text-anchor="start" x="339.88" y="-1029.29" font-family="Helvetica,sans-Serif" font-style="italic" font-size="32.00" fill="#29235c">INTEGER</text>
<polygon fill="#e7e2dd" stroke="transparent" points="101.98,-948.09 101.98,-1008.09 492.98,-1008.09 492.98,-948.09 101.98,-948.09"/>
<polygon fill="none" stroke="#29235c" points="101.98,-948.09 101.98,-1008.09 492.98,-1008.09 492.98,-948.09 101.98,-948.09"/>
<text text-anchor="start" x="112.98" y="-968.29" font-family="Helvetica,sans-Serif" font-size="32.00" fill="#29235c">flight_id &#160;&#160;&#160;</text>
<text text-anchor="start" x="339.77" y="-969.29" font-family="Helvetica,sans-Serif" font-style="italic" font-size="32.00" fill="#29235c">INTEGER</text>
<polygon fill="#e7e2dd" stroke="transparent" points="101.98,-888.09 101.98,-948.09 492.98,-948.09 492.98,-888.09 101.98,-888.09"/>
<polygon fill="none" stroke="#29235c" points="101.98,-888.09 101.98,-948.09 492.98,-948.09 492.98,-888.09 101.98,-888.09"/>
<text text-anchor="start" x="112.98" y="-908.29" font-family="Helvetica,sans-Serif" font-size="32.00" fill="#29235c">status &#160;&#160;&#160;</text>
<text text-anchor="start" x="325.56" y="-909.29" font-family="Helvetica,sans-Serif" font-style="italic" font-size="32.00" fill="#29235c">VARCHAR</text>
<polygon fill="#e7e2dd" stroke="transparent" points="101.98,-828.09 101.98,-888.09 492.98,-888.09 492.98,-828.09 101.98,-828.09"/>
<polygon fill="none" stroke="#29235c" points="101.98,-828.09 101.98,-888.09 492.98,-888.09 492.98,-828.09 101.98,-828.09"/>
<text text-anchor="start" x="112.98" y="-848.29" font-family="Helvetica,sans-Serif" font-size="32.00" fill="#29235c">booking_date &#160;&#160;&#160;</text>
<text text-anchor="start" x="396.65" y="-849.29" font-family="Helvetica,sans-Serif" font-style="italic" font-size="32.00" fill="#29235c">DATE</text>
<polygon fill="none" stroke="#29235c" stroke-width="2" points="100.48,-827.09 100.48,-1189.09 493.48,-1189.09 493.48,-827.09 100.48,-827.09"/>
</g>
<!-- Booking&#45;&gt;Passenger -->
<!-- Booking&#45;&gt;Passenger -->
<g id="edge12" class="edge">
<title>Booking:e&#45;&gt;Passenger:w</title>
<path fill="none" stroke="#29235c" stroke-width="3" d="M493.98,-1038.09C609.71,-1038.09 631.1,-967.42 741.3,-963.28"/>
<polygon fill="#29235c" stroke="#29235c" stroke-width="3" points="741.59,-966.77 751.52,-963.09 741.46,-959.78 741.59,-966.77"/>
<text text-anchor="middle" x="757.75" y="-972.69" font-family="Helvetica,sans-Serif" font-size="32.00" fill="#29235c">*</text>
<text text-anchor="middle" x="485.09" y="-1009.29" font-family="Helvetica,sans-Serif" font-size="32.00" fill="#29235c">1</text>
</g>
<!-- Booking&#45;&gt;Flight -->
<!-- Booking&#45;&gt;Flight -->
<g id="edge10" class="edge">
<title>Booking:e&#45;&gt;Flight:w</title>
<path fill="none" stroke="#29235c" stroke-width="3" d="M493.98,-978.09C607.9,-978.09 567.87,-852.97 593.97,-742.09 608.84,-678.92 582.68,-203.55 629.97,-159.09 858.94,56.18 1102.11,49.61 1337.08,-159.09 1387.77,-204.12 1361.8,-395.23 1373.08,-462.09 1410.4,-683.47 1259.62,-954.74 1472.8,-962.9"/>
<polygon fill="#29235c" stroke="#29235c" stroke-width="3" points="1472.83,-966.4 1482.89,-963.09 1472.96,-959.4 1472.83,-966.4"/>
<text text-anchor="middle" x="1489.12" y="-934.29" font-family="Helvetica,sans-Serif" font-size="32.00" fill="#29235c">*</text>
<text text-anchor="middle" x="485.09" y="-949.29" font-family="Helvetica,sans-Serif" font-size="32.00" fill="#29235c">1</text>
</g>
<!-- Flight&#45;&gt;Aircraft -->
<!-- Flight&#45;&gt;Aircraft -->
<g id="edge14" class="edge">
<title>Flight:e&#45;&gt;Aircraft:w</title>
<path fill="none" stroke="#29235c" stroke-width="3" d="M2003.89,-603.09C2184.98,-603.09 2061.84,-1369.06 2231.34,-1398.24"/>
<polygon fill="#29235c" stroke="#29235c" stroke-width="3" points="2231.29,-1401.74 2241.54,-1399.09 2231.87,-1394.77 2231.29,-1401.74"/>
<text text-anchor="middle" x="2247.77" y="-1408.69" font-family="Helvetica,sans-Serif" font-size="32.00" fill="#29235c">*</text>
<text text-anchor="middle" x="1995" y="-574.29" font-family="Helvetica,sans-Serif" font-size="32.00" fill="#29235c">1</text>
</g>
<!-- Flight&#45;&gt;Airport -->
<!-- Flight&#45;&gt;Airport -->
<g id="edge16" class="edge">
<title>Flight:e&#45;&gt;Airport:w</title>
<path fill="none" stroke="#29235c" stroke-width="3" d="M2003.89,-783.09C2153.9,-783.09 2145.55,-955.1 2288.45,-962.82"/>
<polygon fill="#29235c" stroke="#29235c" stroke-width="3" points="2288.45,-966.32 2298.54,-963.09 2288.64,-959.33 2288.45,-966.32"/>
<text text-anchor="middle" x="2304.77" y="-972.69" font-family="Helvetica,sans-Serif" font-size="32.00" fill="#29235c">*</text>
<text text-anchor="middle" x="1995" y="-754.29" font-family="Helvetica,sans-Serif" font-size="32.00" fill="#29235c">1</text>
</g>
<!-- Flight&#45;&gt;Airport -->
<!-- Flight&#45;&gt;Airport -->
<g id="edge18" class="edge">
<title>Flight:e&#45;&gt;Airport:w</title>
<path fill="none" stroke="#29235c" stroke-width="3" d="M2003.89,-843.09C2141.84,-843.09 2156.49,-957.3 2288.42,-962.88"/>
<polygon fill="#29235c" stroke="#29235c" stroke-width="3" points="2288.47,-966.38 2298.54,-963.09 2288.62,-959.38 2288.47,-966.38"/>
<text text-anchor="middle" x="2292.32" y="-934.29" font-family="Helvetica,sans-Serif" font-size="32.00" fill="#29235c">*</text>
<text text-anchor="middle" x="1995" y="-814.29" font-family="Helvetica,sans-Serif" font-size="32.00" fill="#29235c">1</text>
</g>
<!-- CrewMember -->
<g id="CrewMember" class="node">
<title>CrewMember</title>
<ellipse fill="none" stroke="black" stroke-width="0" cx="983.52" cy="-383.09" rx="241.66" ry="214.92"/>
<polygon fill="#1d71b8" stroke="transparent" points="814.52,-473.09 814.52,-533.09 1152.52,-533.09 1152.52,-473.09 814.52,-473.09"/>
<polygon fill="none" stroke="#29235c" points="814.52,-473.09 814.52,-533.09 1152.52,-533.09 1152.52,-473.09 814.52,-473.09"/>
<text text-anchor="start" x="825.29" y="-494.29" font-family="Helvetica,sans-Serif" font-weight="bold" font-size="32.00" fill="#ffffff"> &#160;&#160;&#160;&#160;&#160;&#160;CrewMember &#160;&#160;&#160;&#160;&#160;&#160;</text>
<polygon fill="#e7e2dd" stroke="transparent" points="814.52,-413.09 814.52,-473.09 1152.52,-473.09 1152.52,-413.09 814.52,-413.09"/>
<polygon fill="none" stroke="#29235c" points="814.52,-413.09 814.52,-473.09 1152.52,-473.09 1152.52,-413.09 814.52,-413.09"/>
<text text-anchor="start" x="825.52" y="-434.29" font-family="Helvetica,sans-Serif" font-weight="bold" font-size="32.00" fill="#29235c">id</text>
<text text-anchor="start" x="850.41" y="-434.29" font-family="Helvetica,sans-Serif" font-size="32.00" fill="#29235c"> &#160;&#160;&#160;</text>
<text text-anchor="start" x="999.31" y="-434.29" font-family="Helvetica,sans-Serif" font-style="italic" font-size="32.00" fill="#29235c">INTEGER</text>
<polygon fill="#e7e2dd" stroke="transparent" points="814.52,-353.09 814.52,-413.09 1152.52,-413.09 1152.52,-353.09 814.52,-353.09"/>
<polygon fill="none" stroke="#29235c" points="814.52,-353.09 814.52,-413.09 1152.52,-413.09 1152.52,-353.09 814.52,-353.09"/>
<text text-anchor="start" x="825.52" y="-373.29" font-family="Helvetica,sans-Serif" font-size="32.00" fill="#29235c">name &#160;&#160;&#160;</text>
<text text-anchor="start" x="985.1" y="-374.29" font-family="Helvetica,sans-Serif" font-style="italic" font-size="32.00" fill="#29235c">VARCHAR</text>
<polygon fill="#e7e2dd" stroke="transparent" points="814.52,-293.09 814.52,-353.09 1152.52,-353.09 1152.52,-293.09 814.52,-293.09"/>
<polygon fill="none" stroke="#29235c" points="814.52,-293.09 814.52,-353.09 1152.52,-353.09 1152.52,-293.09 814.52,-293.09"/>
<text text-anchor="start" x="825.52" y="-313.29" font-family="Helvetica,sans-Serif" font-size="32.00" fill="#29235c">position &#160;&#160;&#160;</text>
<text text-anchor="start" x="985.1" y="-314.29" font-family="Helvetica,sans-Serif" font-style="italic" font-size="32.00" fill="#29235c">VARCHAR</text>
<polygon fill="#e7e2dd" stroke="transparent" points="814.52,-233.09 814.52,-293.09 1152.52,-293.09 1152.52,-233.09 814.52,-233.09"/>
<polygon fill="none" stroke="#29235c" points="814.52,-233.09 814.52,-293.09 1152.52,-293.09 1152.52,-233.09 814.52,-233.09"/>
<text text-anchor="start" x="825.52" y="-253.29" font-family="Helvetica,sans-Serif" font-size="32.00" fill="#29235c">flight_id &#160;&#160;&#160;</text>
<text text-anchor="start" x="999.31" y="-254.29" font-family="Helvetica,sans-Serif" font-style="italic" font-size="32.00" fill="#29235c">INTEGER</text>
<polygon fill="none" stroke="#29235c" stroke-width="2" points="813.52,-232.09 813.52,-534.09 1153.52,-534.09 1153.52,-232.09 813.52,-232.09"/>
</g>
<!-- CrewMember&#45;&gt;Flight -->
<!-- CrewMember&#45;&gt;Flight -->
<g id="edge20" class="edge">
<title>CrewMember:e&#45;&gt;Flight:w</title>
<path fill="none" stroke="#29235c" stroke-width="3" d="M1153.52,-263.09C1326.82,-263.09 1263.35,-450.26 1337.08,-607.09 1408.33,-758.65 1315.86,-954.85 1472.71,-962.84"/>
<polygon fill="#29235c" stroke="#29235c" stroke-width="3" points="1472.81,-966.34 1482.89,-963.09 1472.98,-959.34 1472.81,-966.34"/>
<text text-anchor="middle" x="1476.67" y="-972.69" font-family="Helvetica,sans-Serif" font-size="32.00" fill="#29235c">*</text>
<text text-anchor="middle" x="1162.42" y="-234.29" font-family="Helvetica,sans-Serif" font-size="32.00" fill="#29235c">1</text>
</g>
<!-- Pilot -->
<g id="Pilot" class="node">
<title>Pilot</title>
<ellipse fill="none" stroke="black" stroke-width="0" cx="983.52" cy="-1861.09" rx="353.61" ry="214.92"/>
<polygon fill="#1d71b8" stroke="transparent" points="735.52,-1951.09 735.52,-2011.09 1231.52,-2011.09 1231.52,-1951.09 735.52,-1951.09"/>
<polygon fill="none" stroke="#29235c" points="735.52,-1951.09 735.52,-2011.09 1231.52,-2011.09 1231.52,-1951.09 735.52,-1951.09"/>
<text text-anchor="start" x="890.16" y="-1972.29" font-family="Helvetica,sans-Serif" font-weight="bold" font-size="32.00" fill="#ffffff"> &#160;&#160;&#160;&#160;&#160;&#160;Pilot &#160;&#160;&#160;&#160;&#160;&#160;</text>
<polygon fill="#e7e2dd" stroke="transparent" points="735.52,-1891.09 735.52,-1951.09 1231.52,-1951.09 1231.52,-1891.09 735.52,-1891.09"/>
<polygon fill="none" stroke="#29235c" points="735.52,-1891.09 735.52,-1951.09 1231.52,-1951.09 1231.52,-1891.09 735.52,-1891.09"/>
<text text-anchor="start" x="746.52" y="-1912.29" font-family="Helvetica,sans-Serif" font-weight="bold" font-size="32.00" fill="#29235c">id</text>
<text text-anchor="start" x="771.41" y="-1912.29" font-family="Helvetica,sans-Serif" font-size="32.00" fill="#29235c"> &#160;&#160;&#160;</text>
<text text-anchor="start" x="1078.31" y="-1912.29" font-family="Helvetica,sans-Serif" font-style="italic" font-size="32.00" fill="#29235c">INTEGER</text>
<polygon fill="#e7e2dd" stroke="transparent" points="735.52,-1831.09 735.52,-1891.09 1231.52,-1891.09 1231.52,-1831.09 735.52,-1831.09"/>
<polygon fill="none" stroke="#29235c" points="735.52,-1831.09 735.52,-1891.09 1231.52,-1891.09 1231.52,-1831.09 735.52,-1831.09"/>
<text text-anchor="start" x="746.52" y="-1851.29" font-family="Helvetica,sans-Serif" font-size="32.00" fill="#29235c">name &#160;&#160;&#160;</text>
<text text-anchor="start" x="1064.1" y="-1852.29" font-family="Helvetica,sans-Serif" font-style="italic" font-size="32.00" fill="#29235c">VARCHAR</text>
<polygon fill="#e7e2dd" stroke="transparent" points="735.52,-1771.09 735.52,-1831.09 1231.52,-1831.09 1231.52,-1771.09 735.52,-1771.09"/>
<polygon fill="none" stroke="#29235c" points="735.52,-1771.09 735.52,-1831.09 1231.52,-1831.09 1231.52,-1771.09 735.52,-1771.09"/>
<text text-anchor="start" x="746.52" y="-1791.29" font-family="Helvetica,sans-Serif" font-size="32.00" fill="#29235c">license_number &#160;&#160;&#160;</text>
<text text-anchor="start" x="1064.1" y="-1792.29" font-family="Helvetica,sans-Serif" font-style="italic" font-size="32.00" fill="#29235c">VARCHAR</text>
<polygon fill="#e7e2dd" stroke="transparent" points="735.52,-1711.09 735.52,-1771.09 1231.52,-1771.09 1231.52,-1711.09 735.52,-1711.09"/>
<polygon fill="none" stroke="#29235c" points="735.52,-1711.09 735.52,-1771.09 1231.52,-1771.09 1231.52,-1711.09 735.52,-1711.09"/>
<text text-anchor="start" x="746.25" y="-1731.29" font-family="Helvetica,sans-Serif" font-size="32.00" fill="#29235c">years_of_experience &#160;&#160;&#160;</text>
<text text-anchor="start" x="1078.41" y="-1732.29" font-family="Helvetica,sans-Serif" font-style="italic" font-size="32.00" fill="#29235c">INTEGER</text>
<polygon fill="none" stroke="#29235c" stroke-width="2" points="734.52,-1710.09 734.52,-2012.09 1232.52,-2012.09 1232.52,-1710.09 734.52,-1710.09"/>
</g>
<!-- PilotLicense -->
<g id="PilotLicense" class="node">
<title>PilotLicense</title>
<ellipse fill="none" stroke="black" stroke-width="0" cx="296.98" cy="-1861.09" rx="279.11" ry="214.92"/>
<polygon fill="#1d71b8" stroke="transparent" points="101.98,-1951.09 101.98,-2011.09 492.98,-2011.09 492.98,-1951.09 101.98,-1951.09"/>
<polygon fill="none" stroke="#29235c" points="101.98,-1951.09 101.98,-2011.09 492.98,-2011.09 492.98,-1951.09 101.98,-1951.09"/>
<text text-anchor="start" x="149" y="-1972.29" font-family="Helvetica,sans-Serif" font-weight="bold" font-size="32.00" fill="#ffffff"> &#160;&#160;&#160;&#160;&#160;&#160;PilotLicense &#160;&#160;&#160;&#160;&#160;&#160;</text>
<polygon fill="#e7e2dd" stroke="transparent" points="101.98,-1891.09 101.98,-1951.09 492.98,-1951.09 492.98,-1891.09 101.98,-1891.09"/>
<polygon fill="none" stroke="#29235c" points="101.98,-1891.09 101.98,-1951.09 492.98,-1951.09 492.98,-1891.09 101.98,-1891.09"/>
<text text-anchor="start" x="112.98" y="-1912.29" font-family="Helvetica,sans-Serif" font-weight="bold" font-size="32.00" fill="#29235c">id</text>
<text text-anchor="start" x="137.87" y="-1912.29" font-family="Helvetica,sans-Serif" font-size="32.00" fill="#29235c"> &#160;&#160;&#160;</text>
<text text-anchor="start" x="339.77" y="-1912.29" font-family="Helvetica,sans-Serif" font-style="italic" font-size="32.00" fill="#29235c">INTEGER</text>
<polygon fill="#e7e2dd" stroke="transparent" points="101.98,-1831.09 101.98,-1891.09 492.98,-1891.09 492.98,-1831.09 101.98,-1831.09"/>
<polygon fill="none" stroke="#29235c" points="101.98,-1831.09 101.98,-1891.09 492.98,-1891.09 492.98,-1831.09 101.98,-1831.09"/>
<text text-anchor="start" x="112.98" y="-1851.29" font-family="Helvetica,sans-Serif" font-size="32.00" fill="#29235c">pilot_id &#160;&#160;&#160;</text>
<text text-anchor="start" x="339.77" y="-1852.29" font-family="Helvetica,sans-Serif" font-style="italic" font-size="32.00" fill="#29235c">INTEGER</text>
<polygon fill="#e7e2dd" stroke="transparent" points="101.98,-1771.09 101.98,-1831.09 492.98,-1831.09 492.98,-1771.09 101.98,-1771.09"/>
<polygon fill="none" stroke="#29235c" points="101.98,-1771.09 101.98,-1831.09 492.98,-1831.09 492.98,-1771.09 101.98,-1771.09"/>
<text text-anchor="start" x="112.79" y="-1791.29" font-family="Helvetica,sans-Serif" font-size="32.00" fill="#29235c">license_type &#160;&#160;&#160;</text>
<text text-anchor="start" x="325.77" y="-1792.29" font-family="Helvetica,sans-Serif" font-style="italic" font-size="32.00" fill="#29235c">VARCHAR</text>
<polygon fill="#e7e2dd" stroke="transparent" points="101.98,-1711.09 101.98,-1771.09 492.98,-1771.09 492.98,-1711.09 101.98,-1711.09"/>
<polygon fill="none" stroke="#29235c" points="101.98,-1711.09 101.98,-1771.09 492.98,-1771.09 492.98,-1711.09 101.98,-1711.09"/>
<text text-anchor="start" x="112.98" y="-1731.29" font-family="Helvetica,sans-Serif" font-size="32.00" fill="#29235c">expiry_date &#160;&#160;&#160;</text>
<text text-anchor="start" x="396.65" y="-1732.29" font-family="Helvetica,sans-Serif" font-style="italic" font-size="32.00" fill="#29235c">DATE</text>
<polygon fill="none" stroke="#29235c" stroke-width="2" points="100.48,-1710.09 100.48,-2012.09 493.48,-2012.09 493.48,-1710.09 100.48,-1710.09"/>
</g>
<!-- PilotLicense&#45;&gt;Pilot -->
<!-- PilotLicense&#45;&gt;Pilot -->
<g id="edge22" class="edge">
<title>PilotLicense:e&#45;&gt;Pilot:w</title>
<path fill="none" stroke="#29235c" stroke-width="3" d="M493.98,-1861.09C600.72,-1861.09 622.99,-1917.4 724.45,-1920.92"/>
<polygon fill="#29235c" stroke="#29235c" stroke-width="3" points="724.46,-1924.42 734.52,-1921.09 724.58,-1917.42 724.46,-1924.42"/>
<text text-anchor="middle" x="740.75" y="-1930.69" font-family="Helvetica,sans-Serif" font-size="32.00" fill="#29235c">*</text>
<text text-anchor="middle" x="485.09" y="-1870.69" font-family="Helvetica,sans-Serif" font-size="32.00" fill="#29235c">1</text>
</g>
</g>
</svg>
