<?xml version="1.0" encoding="UTF-8" standalone="no"?>
<!DOCTYPE svg PUBLIC "-//W3C//DTD SVG 1.1//EN"
 "http://www.w3.org/Graphics/SVG/1.1/DTD/svg11.dtd">
<!-- Generated by graphviz version 2.47.0 (20210316.0004)
 -->
<!-- Title: dbml Pages: 1 -->
<svg width="1988pt" height="1201pt"
 viewBox="0.00 0.00 1987.77 1200.63" xmlns="http://www.w3.org/2000/svg" xmlns:xlink="http://www.w3.org/1999/xlink">
<g id="graph0" class="graph" transform="scale(1 1) rotate(0) translate(4 1196.63)">
<title>dbml</title>
<!-- Airplane -->
<g id="Airplane" class="node">
<title>Airplane</title>
<ellipse fill="none" stroke="black" stroke-width="0" cx="1662.28" cy="-287.39" rx="317.48" ry="214.92"/>
<polygon fill="#1d71b8" stroke="transparent" points="1440.28,-377.39 1440.28,-437.39 1885.28,-437.39 1885.28,-377.39 1440.28,-377.39"/>
<polygon fill="none" stroke="#29235c" points="1440.28,-377.39 1440.28,-437.39 1885.28,-437.39 1885.28,-377.39 1440.28,-377.39"/>
<text text-anchor="start" x="1541.86" y="-398.59" font-family="Helvetica,sans-Serif" font-weight="bold" font-size="32.00" fill="#ffffff"> &#160;&#160;&#160;&#160;&#160;&#160;Airplane &#160;&#160;&#160;&#160;&#160;&#160;</text>
<polygon fill="#e7e2dd" stroke="transparent" points="1440.28,-317.39 1440.28,-377.39 1885.28,-377.39 1885.28,-317.39 1440.28,-317.39"/>
<polygon fill="none" stroke="#29235c" points="1440.28,-317.39 1440.28,-377.39 1885.28,-377.39 1885.28,-317.39 1440.28,-317.39"/>
<text text-anchor="start" x="1451.28" y="-338.59" font-family="Helvetica,sans-Serif" font-weight="bold" font-size="32.00" fill="#29235c">id</text>
<text text-anchor="start" x="1476.17" y="-338.59" font-family="Helvetica,sans-Serif" font-size="32.00" fill="#29235c"> &#160;&#160;&#160;</text>
<text text-anchor="start" x="1732.07" y="-338.59" font-family="Helvetica,sans-Serif" font-style="italic" font-size="32.00" fill="#29235c">INTEGER</text>
<polygon fill="#e7e2dd" stroke="transparent" points="1440.28,-257.39 1440.28,-317.39 1885.28,-317.39 1885.28,-257.39 1440.28,-257.39"/>
<polygon fill="none" stroke="#29235c" points="1440.28,-257.39 1440.28,-317.39 1885.28,-317.39 1885.28,-257.39 1440.28,-257.39"/>
<text text-anchor="start" x="1451.28" y="-277.59" font-family="Helvetica,sans-Serif" font-size="32.00" fill="#29235c">model &#160;&#160;&#160;</text>
<text text-anchor="start" x="1717.86" y="-278.59" font-family="Helvetica,sans-Serif" font-style="italic" font-size="32.00" fill="#29235c">VARCHAR</text>
<polygon fill="#e7e2dd" stroke="transparent" points="1440.28,-197.39 1440.28,-257.39 1885.28,-257.39 1885.28,-197.39 1440.28,-197.39"/>
<polygon fill="none" stroke="#29235c" points="1440.28,-197.39 1440.28,-257.39 1885.28,-257.39 1885.28,-197.39 1440.28,-197.39"/>
<text text-anchor="start" x="1451.28" y="-217.59" font-family="Helvetica,sans-Serif" font-size="32.00" fill="#29235c">seating_capacity &#160;&#160;&#160;</text>
<text text-anchor="start" x="1732.07" y="-218.59" font-family="Helvetica,sans-Serif" font-style="italic" font-size="32.00" fill="#29235c">INTEGER</text>
<polygon fill="#e7e2dd" stroke="transparent" points="1440.28,-137.39 1440.28,-197.39 1885.28,-197.39 1885.28,-137.39 1440.28,-137.39"/>
<polygon fill="none" stroke="#29235c" points="1440.28,-137.39 1440.28,-197.39 1885.28,-197.39 1885.28,-137.39 1440.28,-137.39"/>
<text text-anchor="start" x="1451.28" y="-157.59" font-family="Helvetica,sans-Serif" font-size="32.00" fill="#29235c">passenger_count &#160;&#160;&#160;</text>
<text text-anchor="start" x="1732.17" y="-158.59" font-family="Helvetica,sans-Serif" font-style="italic" font-size="32.00" fill="#29235c">INTEGER</text>
<polygon fill="none" stroke="#29235c" stroke-width="2" points="1438.78,-136.39 1438.78,-438.39 1885.78,-438.39 1885.78,-136.39 1438.78,-136.39"/>
</g>
<!-- Airport -->
<g id="Airport" class="node">
<title>Airport</title>
<ellipse fill="none" stroke="black" stroke-width="0" cx="279.31" cy="-850.39" rx="235.43" ry="342.48"/>
<polygon fill="#1d71b8" stroke="transparent" points="115.31,-1030.39 115.31,-1090.39 444.31,-1090.39 444.31,-1030.39 115.31,-1030.39"/>
<polygon fill="none" stroke="#29235c" points="115.31,-1030.39 115.31,-1090.39 444.31,-1090.39 444.31,-1030.39 115.31,-1030.39"/>
<text text-anchor="start" x="170.45" y="-1051.59" font-family="Helvetica,sans-Serif" font-weight="bold" font-size="32.00" fill="#ffffff"> &#160;&#160;&#160;&#160;&#160;&#160;Airport &#160;&#160;&#160;&#160;&#160;&#160;</text>
<polygon fill="#e7e2dd" stroke="transparent" points="115.31,-970.39 115.31,-1030.39 444.31,-1030.39 444.31,-970.39 115.31,-970.39"/>
<polygon fill="none" stroke="#29235c" points="115.31,-970.39 115.31,-1030.39 444.31,-1030.39 444.31,-970.39 115.31,-970.39"/>
<text text-anchor="start" x="126.31" y="-991.59" font-family="Helvetica,sans-Serif" font-weight="bold" font-size="32.00" fill="#29235c">id</text>
<text text-anchor="start" x="151.2" y="-991.59" font-family="Helvetica,sans-Serif" font-size="32.00" fill="#29235c"> &#160;&#160;&#160;</text>
<text text-anchor="start" x="291.09" y="-991.59" font-family="Helvetica,sans-Serif" font-style="italic" font-size="32.00" fill="#29235c">INTEGER</text>
<polygon fill="#e7e2dd" stroke="transparent" points="115.31,-910.39 115.31,-970.39 444.31,-970.39 444.31,-910.39 115.31,-910.39"/>
<polygon fill="none" stroke="#29235c" points="115.31,-910.39 115.31,-970.39 444.31,-970.39 444.31,-910.39 115.31,-910.39"/>
<text text-anchor="start" x="126.31" y="-930.59" font-family="Helvetica,sans-Serif" font-size="32.00" fill="#29235c">name &#160;&#160;&#160;</text>
<text text-anchor="start" x="276.88" y="-931.59" font-family="Helvetica,sans-Serif" font-style="italic" font-size="32.00" fill="#29235c">VARCHAR</text>
<polygon fill="#e7e2dd" stroke="transparent" points="115.31,-850.39 115.31,-910.39 444.31,-910.39 444.31,-850.39 115.31,-850.39"/>
<polygon fill="none" stroke="#29235c" points="115.31,-850.39 115.31,-910.39 444.31,-910.39 444.31,-850.39 115.31,-850.39"/>
<text text-anchor="start" x="126.31" y="-870.59" font-family="Helvetica,sans-Serif" font-size="32.00" fill="#29235c">code &#160;&#160;&#160;</text>
<text text-anchor="start" x="276.88" y="-871.59" font-family="Helvetica,sans-Serif" font-style="italic" font-size="32.00" fill="#29235c">VARCHAR</text>
<polygon fill="#e7e2dd" stroke="transparent" points="115.31,-790.39 115.31,-850.39 444.31,-850.39 444.31,-790.39 115.31,-790.39"/>
<polygon fill="none" stroke="#29235c" points="115.31,-790.39 115.31,-850.39 444.31,-850.39 444.31,-790.39 115.31,-790.39"/>
<text text-anchor="start" x="126.31" y="-810.59" font-family="Helvetica,sans-Serif" font-size="32.00" fill="#29235c">city &#160;&#160;&#160;</text>
<text text-anchor="start" x="276.88" y="-811.59" font-family="Helvetica,sans-Serif" font-style="italic" font-size="32.00" fill="#29235c">VARCHAR</text>
<polygon fill="#e7e2dd" stroke="transparent" points="115.31,-730.39 115.31,-790.39 444.31,-790.39 444.31,-730.39 115.31,-730.39"/>
<polygon fill="none" stroke="#29235c" points="115.31,-730.39 115.31,-790.39 444.31,-790.39 444.31,-730.39 115.31,-730.39"/>
<text text-anchor="start" x="126.31" y="-750.59" font-family="Helvetica,sans-Serif" font-size="32.00" fill="#29235c">country &#160;&#160;&#160;</text>
<text text-anchor="start" x="276.88" y="-751.59" font-family="Helvetica,sans-Serif" font-style="italic" font-size="32.00" fill="#29235c">VARCHAR</text>
<polygon fill="#e7e2dd" stroke="transparent" points="115.31,-670.39 115.31,-730.39 444.31,-730.39 444.31,-670.39 115.31,-670.39"/>
<polygon fill="none" stroke="#29235c" points="115.31,-670.39 115.31,-730.39 444.31,-730.39 444.31,-670.39 115.31,-670.39"/>
<text text-anchor="start" x="126.31" y="-690.59" font-family="Helvetica,sans-Serif" font-size="32.00" fill="#29235c">latitude &#160;&#160;&#160;</text>
<text text-anchor="start" x="291.09" y="-691.59" font-family="Helvetica,sans-Serif" font-style="italic" font-size="32.00" fill="#29235c">DECIMAL</text>
<polygon fill="#e7e2dd" stroke="transparent" points="115.31,-610.39 115.31,-670.39 444.31,-670.39 444.31,-610.39 115.31,-610.39"/>
<polygon fill="none" stroke="#29235c" points="115.31,-610.39 115.31,-670.39 444.31,-670.39 444.31,-610.39 115.31,-610.39"/>
<text text-anchor="start" x="126.11" y="-630.59" font-family="Helvetica,sans-Serif" font-size="32.00" fill="#29235c">longitude &#160;&#160;&#160;</text>
<text text-anchor="start" x="291.2" y="-631.59" font-family="Helvetica,sans-Serif" font-style="italic" font-size="32.00" fill="#29235c">DECIMAL</text>
<polygon fill="none" stroke="#29235c" stroke-width="2" points="113.81,-609.39 113.81,-1091.39 444.81,-1091.39 444.81,-609.39 113.81,-609.39"/>
</g>
<!-- Luggage -->
<g id="Luggage" class="node">
<title>Luggage</title>
<ellipse fill="none" stroke="black" stroke-width="0" cx="279.31" cy="-317.39" rx="279.11" ry="172.57"/>
<polygon fill="#1d71b8" stroke="transparent" points="84.31,-377.39 84.31,-437.39 475.31,-437.39 475.31,-377.39 84.31,-377.39"/>
<polygon fill="none" stroke="#29235c" points="84.31,-377.39 84.31,-437.39 475.31,-437.39 475.31,-377.39 84.31,-377.39"/>
<text text-anchor="start" x="155.3" y="-398.59" font-family="Helvetica,sans-Serif" font-weight="bold" font-size="32.00" fill="#ffffff"> &#160;&#160;&#160;&#160;&#160;&#160;Luggage &#160;&#160;&#160;&#160;&#160;&#160;</text>
<polygon fill="#e7e2dd" stroke="transparent" points="84.31,-317.39 84.31,-377.39 475.31,-377.39 475.31,-317.39 84.31,-317.39"/>
<polygon fill="none" stroke="#29235c" points="84.31,-317.39 84.31,-377.39 475.31,-377.39 475.31,-317.39 84.31,-317.39"/>
<text text-anchor="start" x="95.31" y="-338.59" font-family="Helvetica,sans-Serif" font-weight="bold" font-size="32.00" fill="#29235c">id</text>
<text text-anchor="start" x="120.2" y="-338.59" font-family="Helvetica,sans-Serif" font-size="32.00" fill="#29235c"> &#160;&#160;&#160;</text>
<text text-anchor="start" x="322.09" y="-338.59" font-family="Helvetica,sans-Serif" font-style="italic" font-size="32.00" fill="#29235c">INTEGER</text>
<polygon fill="#e7e2dd" stroke="transparent" points="84.31,-257.39 84.31,-317.39 475.31,-317.39 475.31,-257.39 84.31,-257.39"/>
<polygon fill="none" stroke="#29235c" points="84.31,-257.39 84.31,-317.39 475.31,-317.39 475.31,-257.39 84.31,-257.39"/>
<text text-anchor="start" x="94.99" y="-277.59" font-family="Helvetica,sans-Serif" font-size="32.00" fill="#29235c">passenger_id &#160;&#160;&#160;</text>
<text text-anchor="start" x="322.2" y="-278.59" font-family="Helvetica,sans-Serif" font-style="italic" font-size="32.00" fill="#29235c">INTEGER</text>
<polygon fill="#e7e2dd" stroke="transparent" points="84.31,-197.39 84.31,-257.39 475.31,-257.39 475.31,-197.39 84.31,-197.39"/>
<polygon fill="none" stroke="#29235c" points="84.31,-197.39 84.31,-257.39 475.31,-257.39 475.31,-197.39 84.31,-197.39"/>
<text text-anchor="start" x="95.31" y="-217.59" font-family="Helvetica,sans-Serif" font-size="32.00" fill="#29235c">weight &#160;&#160;&#160;</text>
<text text-anchor="start" x="322.09" y="-218.59" font-family="Helvetica,sans-Serif" font-style="italic" font-size="32.00" fill="#29235c">DECIMAL</text>
<polygon fill="none" stroke="#29235c" stroke-width="2" points="82.81,-196.39 82.81,-438.39 475.81,-438.39 475.81,-196.39 82.81,-196.39"/>
</g>
<!-- Passenger -->
<g id="Passenger" class="node">
<title>Passenger</title>
<ellipse fill="none" stroke="black" stroke-width="0" cx="951.7" cy="-257.39" rx="357.18" ry="257.27"/>
<polygon fill="#1d71b8" stroke="transparent" points="701.7,-377.39 701.7,-437.39 1202.7,-437.39 1202.7,-377.39 701.7,-377.39"/>
<polygon fill="none" stroke="#29235c" points="701.7,-377.39 701.7,-437.39 1202.7,-437.39 1202.7,-377.39 701.7,-377.39"/>
<text text-anchor="start" x="813.48" y="-398.59" font-family="Helvetica,sans-Serif" font-weight="bold" font-size="32.00" fill="#ffffff"> &#160;&#160;&#160;&#160;&#160;&#160;Passenger &#160;&#160;&#160;&#160;&#160;&#160;</text>
<polygon fill="#e7e2dd" stroke="transparent" points="701.7,-317.39 701.7,-377.39 1202.7,-377.39 1202.7,-317.39 701.7,-317.39"/>
<polygon fill="none" stroke="#29235c" points="701.7,-317.39 701.7,-377.39 1202.7,-377.39 1202.7,-317.39 701.7,-317.39"/>
<text text-anchor="start" x="712.7" y="-338.59" font-family="Helvetica,sans-Serif" font-weight="bold" font-size="32.00" fill="#29235c">id</text>
<text text-anchor="start" x="737.59" y="-338.59" font-family="Helvetica,sans-Serif" font-size="32.00" fill="#29235c"> &#160;&#160;&#160;</text>
<text text-anchor="start" x="1049.49" y="-338.59" font-family="Helvetica,sans-Serif" font-style="italic" font-size="32.00" fill="#29235c">INTEGER</text>
<polygon fill="#e7e2dd" stroke="transparent" points="701.7,-257.39 701.7,-317.39 1202.7,-317.39 1202.7,-257.39 701.7,-257.39"/>
<polygon fill="none" stroke="#29235c" points="701.7,-257.39 701.7,-317.39 1202.7,-317.39 1202.7,-257.39 701.7,-257.39"/>
<text text-anchor="start" x="712.7" y="-277.59" font-family="Helvetica,sans-Serif" font-size="32.00" fill="#29235c">name &#160;&#160;&#160;</text>
<text text-anchor="start" x="1035.28" y="-278.59" font-family="Helvetica,sans-Serif" font-style="italic" font-size="32.00" fill="#29235c">VARCHAR</text>
<polygon fill="#e7e2dd" stroke="transparent" points="701.7,-197.39 701.7,-257.39 1202.7,-257.39 1202.7,-197.39 701.7,-197.39"/>
<polygon fill="none" stroke="#29235c" points="701.7,-197.39 701.7,-257.39 1202.7,-257.39 1202.7,-197.39 701.7,-197.39"/>
<text text-anchor="start" x="712.7" y="-217.59" font-family="Helvetica,sans-Serif" font-size="32.00" fill="#29235c">email &#160;&#160;&#160;</text>
<text text-anchor="start" x="1035.28" y="-218.59" font-family="Helvetica,sans-Serif" font-style="italic" font-size="32.00" fill="#29235c">VARCHAR</text>
<polygon fill="#e7e2dd" stroke="transparent" points="701.7,-137.39 701.7,-197.39 1202.7,-197.39 1202.7,-137.39 701.7,-137.39"/>
<polygon fill="none" stroke="#29235c" points="701.7,-137.39 701.7,-197.39 1202.7,-197.39 1202.7,-137.39 701.7,-137.39"/>
<text text-anchor="start" x="712.25" y="-157.59" font-family="Helvetica,sans-Serif" font-size="32.00" fill="#29235c">luggage_weight_total &#160;&#160;&#160;</text>
<text text-anchor="start" x="1049.59" y="-158.59" font-family="Helvetica,sans-Serif" font-style="italic" font-size="32.00" fill="#29235c">DECIMAL</text>
<polygon fill="#e7e2dd" stroke="transparent" points="701.7,-77.39 701.7,-137.39 1202.7,-137.39 1202.7,-77.39 701.7,-77.39"/>
<polygon fill="none" stroke="#29235c" points="701.7,-77.39 701.7,-137.39 1202.7,-137.39 1202.7,-77.39 701.7,-77.39"/>
<text text-anchor="start" x="712.7" y="-97.59" font-family="Helvetica,sans-Serif" font-size="32.00" fill="#29235c">airplane_id &#160;&#160;&#160;</text>
<text text-anchor="start" x="1049.49" y="-98.59" font-family="Helvetica,sans-Serif" font-style="italic" font-size="32.00" fill="#29235c">INTEGER</text>
<polygon fill="none" stroke="#29235c" stroke-width="2" points="700.2,-76.39 700.2,-438.39 1203.2,-438.39 1203.2,-76.39 700.2,-76.39"/>
</g>
<!-- Luggage&#45;&gt;Passenger -->
<!-- Luggage&#45;&gt;Passenger -->
<g id="edge2" class="edge">
<title>Luggage:e&#45;&gt;Passenger:w</title>
<path fill="none" stroke="#29235c" stroke-width="3" d="M476.31,-287.39C576.11,-287.39 596.18,-343.47 690.7,-347.19"/>
<polygon fill="#29235c" stroke="#29235c" stroke-width="3" points="690.64,-350.69 700.7,-347.39 690.77,-343.69 690.64,-350.69"/>
<text text-anchor="middle" x="694.48" y="-356.99" font-family="Helvetica,sans-Serif" font-size="32.00" fill="#29235c">*</text>
<text text-anchor="middle" x="467.41" y="-258.59" font-family="Helvetica,sans-Serif" font-size="32.00" fill="#29235c">1</text>
</g>
<!-- Passenger&#45;&gt;Airplane -->
<!-- Passenger&#45;&gt;Airplane -->
<g id="edge4" class="edge">
<title>Passenger:e&#45;&gt;Airplane:w</title>
<path fill="none" stroke="#29235c" stroke-width="3" d="M1203.7,-107.39C1349.67,-107.39 1292.67,-336.27 1429.12,-347"/>
<polygon fill="#29235c" stroke="#29235c" stroke-width="3" points="1429.16,-350.5 1439.28,-347.39 1429.42,-343.51 1429.16,-350.5"/>
<text text-anchor="middle" x="1433.06" y="-356.99" font-family="Helvetica,sans-Serif" font-size="32.00" fill="#29235c">*</text>
<text text-anchor="middle" x="1194.81" y="-78.59" font-family="Helvetica,sans-Serif" font-size="32.00" fill="#29235c">1</text>
</g>
</g>
</svg>
