<?xml version="1.0" encoding="UTF-8" standalone="no"?>
<!DOCTYPE svg PUBLIC "-//W3C//DTD SVG 1.1//EN"
 "http://www.w3.org/Graphics/SVG/1.1/DTD/svg11.dtd">
<!-- Generated by graphviz version 2.47.0 (20210316.0004)
 -->
<!-- Title: dbml Pages: 1 -->
<svg width="2655pt" height="2749pt"
 viewBox="0.00 0.00 2654.51 2749.35" xmlns="http://www.w3.org/2000/svg" xmlns:xlink="http://www.w3.org/1999/xlink">
<g id="graph0" class="graph" transform="scale(1 1) rotate(0) translate(4 2745.35)">
<title>dbml</title>
<!-- Airplane -->
<g id="Airplane" class="node">
<title>Airplane</title>
<ellipse fill="none" stroke="black" stroke-width="0" cx="321.73" cy="-257.39" rx="308.1" ry="257.27"/>
<polygon fill="#1d71b8" stroke="transparent" points="105.73,-377.39 105.73,-437.39 537.73,-437.39 537.73,-377.39 105.73,-377.39"/>
<polygon fill="none" stroke="#29235c" points="105.73,-377.39 105.73,-437.39 537.73,-437.39 537.73,-377.39 105.73,-377.39"/>
<text text-anchor="start" x="200.81" y="-398.59" font-family="Helvetica,sans-Serif" font-weight="bold" font-size="32.00" fill="#ffffff"> &#160;&#160;&#160;&#160;&#160;&#160;Airplane &#160;&#160;&#160;&#160;&#160;&#160;</text>
<polygon fill="#e7e2dd" stroke="transparent" points="105.73,-317.39 105.73,-377.39 537.73,-377.39 537.73,-317.39 105.73,-317.39"/>
<polygon fill="none" stroke="#29235c" points="105.73,-317.39 105.73,-377.39 537.73,-377.39 537.73,-317.39 105.73,-317.39"/>
<text text-anchor="start" x="116.73" y="-338.59" font-family="Helvetica,sans-Serif" font-weight="bold" font-size="32.00" fill="#29235c">id</text>
<text text-anchor="start" x="141.62" y="-338.59" font-family="Helvetica,sans-Serif" font-size="32.00" fill="#29235c"> &#160;&#160;&#160;</text>
<text text-anchor="start" x="384.52" y="-338.59" font-family="Helvetica,sans-Serif" font-style="italic" font-size="32.00" fill="#29235c">INTEGER</text>
<polygon fill="#e7e2dd" stroke="transparent" points="105.73,-257.39 105.73,-317.39 537.73,-317.39 537.73,-257.39 105.73,-257.39"/>
<polygon fill="none" stroke="#29235c" points="105.73,-257.39 105.73,-317.39 537.73,-317.39 537.73,-257.39 105.73,-257.39"/>
<text text-anchor="start" x="116.59" y="-277.59" font-family="Helvetica,sans-Serif" font-size="32.00" fill="#29235c">airplane_model &#160;&#160;&#160;</text>
<text text-anchor="start" x="370.52" y="-278.59" font-family="Helvetica,sans-Serif" font-style="italic" font-size="32.00" fill="#29235c">VARCHAR</text>
<polygon fill="#e7e2dd" stroke="transparent" points="105.73,-197.39 105.73,-257.39 537.73,-257.39 537.73,-197.39 105.73,-197.39"/>
<polygon fill="none" stroke="#29235c" points="105.73,-197.39 105.73,-257.39 537.73,-257.39 537.73,-197.39 105.73,-197.39"/>
<text text-anchor="start" x="116.73" y="-217.59" font-family="Helvetica,sans-Serif" font-size="32.00" fill="#29235c">airline &#160;&#160;&#160;</text>
<text text-anchor="start" x="370.31" y="-218.59" font-family="Helvetica,sans-Serif" font-style="italic" font-size="32.00" fill="#29235c">VARCHAR</text>
<polygon fill="#e7e2dd" stroke="transparent" points="105.73,-137.39 105.73,-197.39 537.73,-197.39 537.73,-137.39 105.73,-137.39"/>
<polygon fill="none" stroke="#29235c" points="105.73,-137.39 105.73,-197.39 537.73,-197.39 537.73,-137.39 105.73,-137.39"/>
<text text-anchor="start" x="116.73" y="-157.59" font-family="Helvetica,sans-Serif" font-size="32.00" fill="#29235c">capacity &#160;&#160;&#160;</text>
<text text-anchor="start" x="384.52" y="-158.59" font-family="Helvetica,sans-Serif" font-style="italic" font-size="32.00" fill="#29235c">INTEGER</text>
<polygon fill="#e7e2dd" stroke="transparent" points="105.73,-77.39 105.73,-137.39 537.73,-137.39 537.73,-77.39 105.73,-77.39"/>
<polygon fill="none" stroke="#29235c" points="105.73,-77.39 105.73,-137.39 537.73,-137.39 537.73,-77.39 105.73,-77.39"/>
<text text-anchor="start" x="116.73" y="-97.59" font-family="Helvetica,sans-Serif" font-size="32.00" fill="#29235c">manufacturer_id &#160;&#160;&#160;</text>
<text text-anchor="start" x="384.52" y="-98.59" font-family="Helvetica,sans-Serif" font-style="italic" font-size="32.00" fill="#29235c">INTEGER</text>
<polygon fill="none" stroke="#29235c" stroke-width="2" points="104.73,-76.39 104.73,-438.39 538.73,-438.39 538.73,-76.39 104.73,-76.39"/>
</g>
<!-- Manufacturer -->
<g id="Manufacturer" class="node">
<title>Manufacturer</title>
<ellipse fill="none" stroke="black" stroke-width="0" cx="975.04" cy="-317.39" rx="239" ry="172.57"/>
<polygon fill="#1d71b8" stroke="transparent" points="808.04,-377.39 808.04,-437.39 1142.04,-437.39 1142.04,-377.39 808.04,-377.39"/>
<polygon fill="none" stroke="#29235c" points="808.04,-377.39 808.04,-437.39 1142.04,-437.39 1142.04,-377.39 808.04,-377.39"/>
<text text-anchor="start" x="818.55" y="-398.59" font-family="Helvetica,sans-Serif" font-weight="bold" font-size="32.00" fill="#ffffff"> &#160;&#160;&#160;&#160;&#160;&#160;Manufacturer &#160;&#160;&#160;&#160;&#160;&#160;</text>
<polygon fill="#e7e2dd" stroke="transparent" points="808.04,-317.39 808.04,-377.39 1142.04,-377.39 1142.04,-317.39 808.04,-317.39"/>
<polygon fill="none" stroke="#29235c" points="808.04,-317.39 808.04,-377.39 1142.04,-377.39 1142.04,-317.39 808.04,-317.39"/>
<text text-anchor="start" x="819.04" y="-338.59" font-family="Helvetica,sans-Serif" font-weight="bold" font-size="32.00" fill="#29235c">id</text>
<text text-anchor="start" x="843.93" y="-338.59" font-family="Helvetica,sans-Serif" font-size="32.00" fill="#29235c"> &#160;&#160;&#160;</text>
<text text-anchor="start" x="988.82" y="-338.59" font-family="Helvetica,sans-Serif" font-style="italic" font-size="32.00" fill="#29235c">INTEGER</text>
<polygon fill="#e7e2dd" stroke="transparent" points="808.04,-257.39 808.04,-317.39 1142.04,-317.39 1142.04,-257.39 808.04,-257.39"/>
<polygon fill="none" stroke="#29235c" points="808.04,-257.39 808.04,-317.39 1142.04,-317.39 1142.04,-257.39 808.04,-257.39"/>
<text text-anchor="start" x="819.04" y="-277.59" font-family="Helvetica,sans-Serif" font-size="32.00" fill="#29235c">name &#160;&#160;&#160;</text>
<text text-anchor="start" x="974.61" y="-278.59" font-family="Helvetica,sans-Serif" font-style="italic" font-size="32.00" fill="#29235c">VARCHAR</text>
<polygon fill="#e7e2dd" stroke="transparent" points="808.04,-197.39 808.04,-257.39 1142.04,-257.39 1142.04,-197.39 808.04,-197.39"/>
<polygon fill="none" stroke="#29235c" points="808.04,-197.39 808.04,-257.39 1142.04,-257.39 1142.04,-197.39 808.04,-197.39"/>
<text text-anchor="start" x="819.04" y="-217.59" font-family="Helvetica,sans-Serif" font-size="32.00" fill="#29235c">country &#160;&#160;&#160;</text>
<text text-anchor="start" x="974.61" y="-218.59" font-family="Helvetica,sans-Serif" font-style="italic" font-size="32.00" fill="#29235c">VARCHAR</text>
<polygon fill="none" stroke="#29235c" stroke-width="2" points="807.04,-196.39 807.04,-438.39 1143.04,-438.39 1143.04,-196.39 807.04,-196.39"/>
</g>
<!-- Airplane&#45;&gt;Manufacturer -->
<!-- Airplane&#45;&gt;Manufacturer -->
<g id="edge2" class="edge">
<title>Airplane:e&#45;&gt;Manufacturer:w</title>
<path fill="none" stroke="#29235c" stroke-width="3" d="M538.73,-107.39C695.29,-107.39 649.17,-337.19 797.01,-347.06"/>
<polygon fill="#29235c" stroke="#29235c" stroke-width="3" points="796.93,-350.56 807.04,-347.39 797.16,-343.56 796.93,-350.56"/>
<text text-anchor="middle" x="800.82" y="-318.59" font-family="Helvetica,sans-Serif" font-size="32.00" fill="#29235c">*</text>
<text text-anchor="middle" x="529.84" y="-78.59" font-family="Helvetica,sans-Serif" font-size="32.00" fill="#29235c">1</text>
</g>
<!-- Airport -->
<g id="Airport" class="node">
<title>Airport</title>
<ellipse fill="none" stroke="black" stroke-width="0" cx="2324.07" cy="-1673.39" rx="322.38" ry="257.27"/>
<polygon fill="#1d71b8" stroke="transparent" points="2098.07,-1793.39 2098.07,-1853.39 2550.07,-1853.39 2550.07,-1793.39 2098.07,-1793.39"/>
<polygon fill="none" stroke="#29235c" points="2098.07,-1793.39 2098.07,-1853.39 2550.07,-1853.39 2550.07,-1793.39 2098.07,-1793.39"/>
<text text-anchor="start" x="2214.71" y="-1814.59" font-family="Helvetica,sans-Serif" font-weight="bold" font-size="32.00" fill="#ffffff"> &#160;&#160;&#160;&#160;&#160;&#160;Airport &#160;&#160;&#160;&#160;&#160;&#160;</text>
<polygon fill="#e7e2dd" stroke="transparent" points="2098.07,-1733.39 2098.07,-1793.39 2550.07,-1793.39 2550.07,-1733.39 2098.07,-1733.39"/>
<polygon fill="none" stroke="#29235c" points="2098.07,-1733.39 2098.07,-1793.39 2550.07,-1793.39 2550.07,-1733.39 2098.07,-1733.39"/>
<text text-anchor="start" x="2109.07" y="-1754.59" font-family="Helvetica,sans-Serif" font-weight="bold" font-size="32.00" fill="#29235c">id</text>
<text text-anchor="start" x="2133.96" y="-1754.59" font-family="Helvetica,sans-Serif" font-size="32.00" fill="#29235c"> &#160;&#160;&#160;</text>
<text text-anchor="start" x="2396.86" y="-1754.59" font-family="Helvetica,sans-Serif" font-style="italic" font-size="32.00" fill="#29235c">INTEGER</text>
<polygon fill="#e7e2dd" stroke="transparent" points="2098.07,-1673.39 2098.07,-1733.39 2550.07,-1733.39 2550.07,-1673.39 2098.07,-1673.39"/>
<polygon fill="none" stroke="#29235c" points="2098.07,-1673.39 2098.07,-1733.39 2550.07,-1733.39 2550.07,-1673.39 2098.07,-1673.39"/>
<text text-anchor="start" x="2109.07" y="-1693.59" font-family="Helvetica,sans-Serif" font-size="32.00" fill="#29235c">name &#160;&#160;&#160;</text>
<text text-anchor="start" x="2382.65" y="-1694.59" font-family="Helvetica,sans-Serif" font-style="italic" font-size="32.00" fill="#29235c">VARCHAR</text>
<polygon fill="#e7e2dd" stroke="transparent" points="2098.07,-1613.39 2098.07,-1673.39 2550.07,-1673.39 2550.07,-1613.39 2098.07,-1613.39"/>
<polygon fill="none" stroke="#29235c" points="2098.07,-1613.39 2098.07,-1673.39 2550.07,-1673.39 2550.07,-1613.39 2098.07,-1613.39"/>
<text text-anchor="start" x="2109.07" y="-1633.59" font-family="Helvetica,sans-Serif" font-size="32.00" fill="#29235c">location &#160;&#160;&#160;</text>
<text text-anchor="start" x="2382.65" y="-1634.59" font-family="Helvetica,sans-Serif" font-style="italic" font-size="32.00" fill="#29235c">VARCHAR</text>
<polygon fill="#e7e2dd" stroke="transparent" points="2098.07,-1553.39 2098.07,-1613.39 2550.07,-1613.39 2550.07,-1553.39 2098.07,-1553.39"/>
<polygon fill="none" stroke="#29235c" points="2098.07,-1553.39 2098.07,-1613.39 2550.07,-1613.39 2550.07,-1553.39 2098.07,-1553.39"/>
<text text-anchor="start" x="2109.04" y="-1573.59" font-family="Helvetica,sans-Serif" font-size="32.00" fill="#29235c">construction_year &#160;&#160;&#160;</text>
<text text-anchor="start" x="2396.96" y="-1574.59" font-family="Helvetica,sans-Serif" font-style="italic" font-size="32.00" fill="#29235c">INTEGER</text>
<polygon fill="#e7e2dd" stroke="transparent" points="2098.07,-1493.39 2098.07,-1553.39 2550.07,-1553.39 2550.07,-1493.39 2098.07,-1493.39"/>
<polygon fill="none" stroke="#29235c" points="2098.07,-1493.39 2098.07,-1553.39 2550.07,-1553.39 2550.07,-1493.39 2098.07,-1493.39"/>
<text text-anchor="start" x="2109.07" y="-1513.59" font-family="Helvetica,sans-Serif" font-size="32.00" fill="#29235c">capacity &#160;&#160;&#160;</text>
<text text-anchor="start" x="2396.86" y="-1514.59" font-family="Helvetica,sans-Serif" font-style="italic" font-size="32.00" fill="#29235c">INTEGER</text>
<polygon fill="none" stroke="#29235c" stroke-width="2" points="2097.07,-1492.39 2097.07,-1854.39 2551.07,-1854.39 2551.07,-1492.39 2097.07,-1492.39"/>
</g>
<!-- Assignment -->
<g id="Assignment" class="node">
<title>Assignment</title>
<ellipse fill="none" stroke="black" stroke-width="0" cx="975.04" cy="-2066.39" rx="224.31" ry="172.57"/>
<polygon fill="#1d71b8" stroke="transparent" points="819.04,-2126.39 819.04,-2186.39 1132.04,-2186.39 1132.04,-2126.39 819.04,-2126.39"/>
<polygon fill="none" stroke="#29235c" points="819.04,-2126.39 819.04,-2186.39 1132.04,-2186.39 1132.04,-2126.39 819.04,-2126.39"/>
<text text-anchor="start" x="829.72" y="-2147.59" font-family="Helvetica,sans-Serif" font-weight="bold" font-size="32.00" fill="#ffffff"> &#160;&#160;&#160;&#160;&#160;&#160;Assignment &#160;&#160;&#160;&#160;&#160;&#160;</text>
<polygon fill="#e7e2dd" stroke="transparent" points="819.04,-2066.39 819.04,-2126.39 1132.04,-2126.39 1132.04,-2066.39 819.04,-2066.39"/>
<polygon fill="none" stroke="#29235c" points="819.04,-2066.39 819.04,-2126.39 1132.04,-2126.39 1132.04,-2066.39 819.04,-2066.39"/>
<text text-anchor="start" x="830.04" y="-2087.59" font-family="Helvetica,sans-Serif" font-weight="bold" font-size="32.00" fill="#29235c">id</text>
<text text-anchor="start" x="854.93" y="-2087.59" font-family="Helvetica,sans-Serif" font-size="32.00" fill="#29235c"> &#160;&#160;&#160;</text>
<text text-anchor="start" x="978.82" y="-2087.59" font-family="Helvetica,sans-Serif" font-style="italic" font-size="32.00" fill="#29235c">INTEGER</text>
<polygon fill="#e7e2dd" stroke="transparent" points="819.04,-2006.39 819.04,-2066.39 1132.04,-2066.39 1132.04,-2006.39 819.04,-2006.39"/>
<polygon fill="none" stroke="#29235c" points="819.04,-2006.39 819.04,-2066.39 1132.04,-2066.39 1132.04,-2006.39 819.04,-2006.39"/>
<text text-anchor="start" x="830.04" y="-2026.59" font-family="Helvetica,sans-Serif" font-size="32.00" fill="#29235c">pilot_id &#160;&#160;&#160;</text>
<text text-anchor="start" x="978.82" y="-2027.59" font-family="Helvetica,sans-Serif" font-style="italic" font-size="32.00" fill="#29235c">INTEGER</text>
<polygon fill="#e7e2dd" stroke="transparent" points="819.04,-1946.39 819.04,-2006.39 1132.04,-2006.39 1132.04,-1946.39 819.04,-1946.39"/>
<polygon fill="none" stroke="#29235c" points="819.04,-1946.39 819.04,-2006.39 1132.04,-2006.39 1132.04,-1946.39 819.04,-1946.39"/>
<text text-anchor="start" x="830.04" y="-1966.59" font-family="Helvetica,sans-Serif" font-size="32.00" fill="#29235c">flight_id &#160;&#160;&#160;</text>
<text text-anchor="start" x="978.82" y="-1967.59" font-family="Helvetica,sans-Serif" font-style="italic" font-size="32.00" fill="#29235c">INTEGER</text>
<polygon fill="none" stroke="#29235c" stroke-width="2" points="817.54,-1945.39 817.54,-2187.39 1132.54,-2187.39 1132.54,-1945.39 817.54,-1945.39"/>
</g>
<!-- Flight -->
<g id="Flight" class="node">
<title>Flight</title>
<ellipse fill="none" stroke="black" stroke-width="0" cx="1636.12" cy="-1140.39" rx="309.01" ry="257.27"/>
<polygon fill="#1d71b8" stroke="transparent" points="1420.12,-1260.39 1420.12,-1320.39 1853.12,-1320.39 1853.12,-1260.39 1420.12,-1260.39"/>
<polygon fill="none" stroke="#29235c" points="1420.12,-1260.39 1420.12,-1320.39 1853.12,-1320.39 1853.12,-1260.39 1420.12,-1260.39"/>
<text text-anchor="start" x="1535.26" y="-1281.59" font-family="Helvetica,sans-Serif" font-weight="bold" font-size="32.00" fill="#ffffff"> &#160;&#160;&#160;&#160;&#160;&#160;Flight &#160;&#160;&#160;&#160;&#160;&#160;</text>
<polygon fill="#e7e2dd" stroke="transparent" points="1420.12,-1200.39 1420.12,-1260.39 1853.12,-1260.39 1853.12,-1200.39 1420.12,-1200.39"/>
<polygon fill="none" stroke="#29235c" points="1420.12,-1200.39 1420.12,-1260.39 1853.12,-1260.39 1853.12,-1200.39 1420.12,-1200.39"/>
<text text-anchor="start" x="1431.12" y="-1221.59" font-family="Helvetica,sans-Serif" font-weight="bold" font-size="32.00" fill="#29235c">id</text>
<text text-anchor="start" x="1456.01" y="-1221.59" font-family="Helvetica,sans-Serif" font-size="32.00" fill="#29235c"> &#160;&#160;&#160;</text>
<text text-anchor="start" x="1699.9" y="-1221.59" font-family="Helvetica,sans-Serif" font-style="italic" font-size="32.00" fill="#29235c">INTEGER</text>
<polygon fill="#e7e2dd" stroke="transparent" points="1420.12,-1140.39 1420.12,-1200.39 1853.12,-1200.39 1853.12,-1140.39 1420.12,-1140.39"/>
<polygon fill="none" stroke="#29235c" points="1420.12,-1140.39 1420.12,-1200.39 1853.12,-1200.39 1853.12,-1140.39 1420.12,-1140.39"/>
<text text-anchor="start" x="1431.12" y="-1160.59" font-family="Helvetica,sans-Serif" font-size="32.00" fill="#29235c">flight_number &#160;&#160;&#160;</text>
<text text-anchor="start" x="1685.69" y="-1161.59" font-family="Helvetica,sans-Serif" font-style="italic" font-size="32.00" fill="#29235c">VARCHAR</text>
<polygon fill="#e7e2dd" stroke="transparent" points="1420.12,-1080.39 1420.12,-1140.39 1853.12,-1140.39 1853.12,-1080.39 1420.12,-1080.39"/>
<polygon fill="none" stroke="#29235c" points="1420.12,-1080.39 1420.12,-1140.39 1853.12,-1140.39 1853.12,-1080.39 1420.12,-1080.39"/>
<text text-anchor="start" x="1430.76" y="-1100.59" font-family="Helvetica,sans-Serif" font-size="32.00" fill="#29235c">departure_time &#160;&#160;&#160;</text>
<text text-anchor="start" x="1680.74" y="-1101.59" font-family="Helvetica,sans-Serif" font-style="italic" font-size="32.00" fill="#29235c">DATETIME</text>
<polygon fill="#e7e2dd" stroke="transparent" points="1420.12,-1020.39 1420.12,-1080.39 1853.12,-1080.39 1853.12,-1020.39 1420.12,-1020.39"/>
<polygon fill="none" stroke="#29235c" points="1420.12,-1020.39 1420.12,-1080.39 1853.12,-1080.39 1853.12,-1020.39 1420.12,-1020.39"/>
<text text-anchor="start" x="1431.12" y="-1040.59" font-family="Helvetica,sans-Serif" font-size="32.00" fill="#29235c">arrival_time &#160;&#160;&#160;</text>
<text text-anchor="start" x="1680.35" y="-1041.59" font-family="Helvetica,sans-Serif" font-style="italic" font-size="32.00" fill="#29235c">DATETIME</text>
<polygon fill="#e7e2dd" stroke="transparent" points="1420.12,-960.39 1420.12,-1020.39 1853.12,-1020.39 1853.12,-960.39 1420.12,-960.39"/>
<polygon fill="none" stroke="#29235c" points="1420.12,-960.39 1420.12,-1020.39 1853.12,-1020.39 1853.12,-960.39 1420.12,-960.39"/>
<text text-anchor="start" x="1431.12" y="-980.59" font-family="Helvetica,sans-Serif" font-size="32.00" fill="#29235c">airport_id &#160;&#160;&#160;</text>
<text text-anchor="start" x="1699.9" y="-981.59" font-family="Helvetica,sans-Serif" font-style="italic" font-size="32.00" fill="#29235c">INTEGER</text>
<polygon fill="none" stroke="#29235c" stroke-width="2" points="1418.62,-959.39 1418.62,-1321.39 1853.62,-1321.39 1853.62,-959.39 1418.62,-959.39"/>
</g>
<!-- Assignment&#45;&gt;Flight -->
<!-- Assignment&#45;&gt;Flight -->
<g id="edge4" class="edge">
<title>Assignment:e&#45;&gt;Flight:w</title>
<path fill="none" stroke="#29235c" stroke-width="3" d="M1133.04,-1976.39C1397.43,-1976.39 1196.11,-1647.58 1306.61,-1407.39 1344.04,-1326.01 1327.35,-1237.59 1408.7,-1230.8"/>
<polygon fill="#29235c" stroke="#29235c" stroke-width="3" points="1409.27,-1234.28 1419.12,-1230.39 1408.99,-1227.29 1409.27,-1234.28"/>
<text text-anchor="middle" x="1412.9" y="-1201.59" font-family="Helvetica,sans-Serif" font-size="32.00" fill="#29235c">*</text>
<text text-anchor="middle" x="1124.14" y="-1985.99" font-family="Helvetica,sans-Serif" font-size="32.00" fill="#29235c">1</text>
</g>
<!-- Pilot -->
<g id="Pilot" class="node">
<title>Pilot</title>
<ellipse fill="none" stroke="black" stroke-width="0" cx="1636.12" cy="-2526.39" rx="313.5" ry="214.92"/>
<polygon fill="#1d71b8" stroke="transparent" points="1417.12,-2616.39 1417.12,-2676.39 1856.12,-2676.39 1856.12,-2616.39 1417.12,-2616.39"/>
<polygon fill="none" stroke="#29235c" points="1417.12,-2616.39 1417.12,-2676.39 1856.12,-2676.39 1856.12,-2616.39 1417.12,-2616.39"/>
<text text-anchor="start" x="1543.26" y="-2637.59" font-family="Helvetica,sans-Serif" font-weight="bold" font-size="32.00" fill="#ffffff"> &#160;&#160;&#160;&#160;&#160;&#160;Pilot &#160;&#160;&#160;&#160;&#160;&#160;</text>
<polygon fill="#e7e2dd" stroke="transparent" points="1417.12,-2556.39 1417.12,-2616.39 1856.12,-2616.39 1856.12,-2556.39 1417.12,-2556.39"/>
<polygon fill="none" stroke="#29235c" points="1417.12,-2556.39 1417.12,-2616.39 1856.12,-2616.39 1856.12,-2556.39 1417.12,-2556.39"/>
<text text-anchor="start" x="1428.12" y="-2577.59" font-family="Helvetica,sans-Serif" font-weight="bold" font-size="32.00" fill="#29235c">id</text>
<text text-anchor="start" x="1453.01" y="-2577.59" font-family="Helvetica,sans-Serif" font-size="32.00" fill="#29235c"> &#160;&#160;&#160;</text>
<text text-anchor="start" x="1702.9" y="-2577.59" font-family="Helvetica,sans-Serif" font-style="italic" font-size="32.00" fill="#29235c">INTEGER</text>
<polygon fill="#e7e2dd" stroke="transparent" points="1417.12,-2496.39 1417.12,-2556.39 1856.12,-2556.39 1856.12,-2496.39 1417.12,-2496.39"/>
<polygon fill="none" stroke="#29235c" points="1417.12,-2496.39 1417.12,-2556.39 1856.12,-2556.39 1856.12,-2496.39 1417.12,-2496.39"/>
<text text-anchor="start" x="1428.12" y="-2516.59" font-family="Helvetica,sans-Serif" font-size="32.00" fill="#29235c">first_name &#160;&#160;&#160;</text>
<text text-anchor="start" x="1688.69" y="-2517.59" font-family="Helvetica,sans-Serif" font-style="italic" font-size="32.00" fill="#29235c">VARCHAR</text>
<polygon fill="#e7e2dd" stroke="transparent" points="1417.12,-2436.39 1417.12,-2496.39 1856.12,-2496.39 1856.12,-2436.39 1417.12,-2436.39"/>
<polygon fill="none" stroke="#29235c" points="1417.12,-2436.39 1417.12,-2496.39 1856.12,-2496.39 1856.12,-2436.39 1417.12,-2436.39"/>
<text text-anchor="start" x="1428.12" y="-2456.59" font-family="Helvetica,sans-Serif" font-size="32.00" fill="#29235c">last_name &#160;&#160;&#160;</text>
<text text-anchor="start" x="1688.69" y="-2457.59" font-family="Helvetica,sans-Serif" font-style="italic" font-size="32.00" fill="#29235c">VARCHAR</text>
<polygon fill="#e7e2dd" stroke="transparent" points="1417.12,-2376.39 1417.12,-2436.39 1856.12,-2436.39 1856.12,-2376.39 1417.12,-2376.39"/>
<polygon fill="none" stroke="#29235c" points="1417.12,-2376.39 1417.12,-2436.39 1856.12,-2436.39 1856.12,-2376.39 1417.12,-2376.39"/>
<text text-anchor="start" x="1427.93" y="-2396.59" font-family="Helvetica,sans-Serif" font-size="32.00" fill="#29235c">license_number &#160;&#160;&#160;</text>
<text text-anchor="start" x="1688.91" y="-2397.59" font-family="Helvetica,sans-Serif" font-style="italic" font-size="32.00" fill="#29235c">VARCHAR</text>
<polygon fill="none" stroke="#29235c" stroke-width="2" points="1415.62,-2375.39 1415.62,-2677.39 1856.62,-2677.39 1856.62,-2375.39 1415.62,-2375.39"/>
</g>
<!-- Assignment&#45;&gt;Pilot -->
<!-- Assignment&#45;&gt;Pilot -->
<g id="edge6" class="edge">
<title>Assignment:e&#45;&gt;Pilot:w</title>
<path fill="none" stroke="#29235c" stroke-width="3" d="M1133.04,-2036.39C1404.47,-2036.39 1147.88,-2572.51 1405.91,-2586.12"/>
<polygon fill="#29235c" stroke="#29235c" stroke-width="3" points="1406.03,-2589.63 1416.12,-2586.39 1406.21,-2582.63 1406.03,-2589.63"/>
<text text-anchor="middle" x="1409.9" y="-2595.99" font-family="Helvetica,sans-Serif" font-size="32.00" fill="#29235c">*</text>
<text text-anchor="middle" x="1124.14" y="-2045.99" font-family="Helvetica,sans-Serif" font-size="32.00" fill="#29235c">1</text>
</g>
<!-- Flight&#45;&gt;Airport -->
<!-- Flight&#45;&gt;Airport -->
<g id="edge8" class="edge">
<title>Flight:e&#45;&gt;Airport:w</title>
<path fill="none" stroke="#29235c" stroke-width="3" d="M1854.12,-990.39C2030.67,-990.39 1921.47,-1733.49 2086.86,-1762.51"/>
<polygon fill="#29235c" stroke="#29235c" stroke-width="3" points="2086.81,-1766.02 2097.07,-1763.39 2087.41,-1759.05 2086.81,-1766.02"/>
<text text-anchor="middle" x="2090.85" y="-1772.99" font-family="Helvetica,sans-Serif" font-size="32.00" fill="#29235c">*</text>
<text text-anchor="middle" x="1845.23" y="-961.59" font-family="Helvetica,sans-Serif" font-size="32.00" fill="#29235c">1</text>
</g>
<!-- Booking -->
<g id="Booking" class="node">
<title>Booking</title>
<ellipse fill="none" stroke="black" stroke-width="0" cx="321.73" cy="-1164.39" rx="321.97" ry="214.92"/>
<polygon fill="#1d71b8" stroke="transparent" points="96.73,-1254.39 96.73,-1314.39 547.73,-1314.39 547.73,-1254.39 96.73,-1254.39"/>
<polygon fill="none" stroke="#29235c" points="96.73,-1254.39 96.73,-1314.39 547.73,-1314.39 547.73,-1254.39 96.73,-1254.39"/>
<text text-anchor="start" x="202.19" y="-1275.59" font-family="Helvetica,sans-Serif" font-weight="bold" font-size="32.00" fill="#ffffff"> &#160;&#160;&#160;&#160;&#160;&#160;Booking &#160;&#160;&#160;&#160;&#160;&#160;</text>
<polygon fill="#e7e2dd" stroke="transparent" points="96.73,-1194.39 96.73,-1254.39 547.73,-1254.39 547.73,-1194.39 96.73,-1194.39"/>
<polygon fill="none" stroke="#29235c" points="96.73,-1194.39 96.73,-1254.39 547.73,-1254.39 547.73,-1194.39 96.73,-1194.39"/>
<text text-anchor="start" x="107.73" y="-1215.59" font-family="Helvetica,sans-Serif" font-weight="bold" font-size="32.00" fill="#29235c">id</text>
<text text-anchor="start" x="132.62" y="-1215.59" font-family="Helvetica,sans-Serif" font-size="32.00" fill="#29235c"> &#160;&#160;&#160;</text>
<text text-anchor="start" x="394.52" y="-1215.59" font-family="Helvetica,sans-Serif" font-style="italic" font-size="32.00" fill="#29235c">INTEGER</text>
<polygon fill="#e7e2dd" stroke="transparent" points="96.73,-1134.39 96.73,-1194.39 547.73,-1194.39 547.73,-1134.39 96.73,-1134.39"/>
<polygon fill="none" stroke="#29235c" points="96.73,-1134.39 96.73,-1194.39 547.73,-1194.39 547.73,-1134.39 96.73,-1134.39"/>
<text text-anchor="start" x="107.3" y="-1154.59" font-family="Helvetica,sans-Serif" font-size="32.00" fill="#29235c">booking_number &#160;&#160;&#160;</text>
<text text-anchor="start" x="380.52" y="-1155.59" font-family="Helvetica,sans-Serif" font-style="italic" font-size="32.00" fill="#29235c">VARCHAR</text>
<polygon fill="#e7e2dd" stroke="transparent" points="96.73,-1074.39 96.73,-1134.39 547.73,-1134.39 547.73,-1074.39 96.73,-1074.39"/>
<polygon fill="none" stroke="#29235c" points="96.73,-1074.39 96.73,-1134.39 547.73,-1134.39 547.73,-1074.39 96.73,-1074.39"/>
<text text-anchor="start" x="107.73" y="-1094.59" font-family="Helvetica,sans-Serif" font-size="32.00" fill="#29235c">booking_date &#160;&#160;&#160;</text>
<text text-anchor="start" x="451.4" y="-1095.59" font-family="Helvetica,sans-Serif" font-style="italic" font-size="32.00" fill="#29235c">DATE</text>
<polygon fill="#e7e2dd" stroke="transparent" points="96.73,-1014.39 96.73,-1074.39 547.73,-1074.39 547.73,-1014.39 96.73,-1014.39"/>
<polygon fill="none" stroke="#29235c" points="96.73,-1014.39 96.73,-1074.39 547.73,-1074.39 547.73,-1014.39 96.73,-1014.39"/>
<text text-anchor="start" x="107.73" y="-1034.59" font-family="Helvetica,sans-Serif" font-size="32.00" fill="#29235c">ticket_id &#160;&#160;&#160;</text>
<text text-anchor="start" x="394.52" y="-1035.59" font-family="Helvetica,sans-Serif" font-style="italic" font-size="32.00" fill="#29235c">INTEGER</text>
<polygon fill="none" stroke="#29235c" stroke-width="2" points="95.23,-1013.39 95.23,-1315.39 548.23,-1315.39 548.23,-1013.39 95.23,-1013.39"/>
</g>
<!-- Ticket -->
<g id="Ticket" class="node">
<title>Ticket</title>
<ellipse fill="none" stroke="black" stroke-width="0" cx="975.04" cy="-1134.39" rx="295.64" ry="257.27"/>
<polygon fill="#1d71b8" stroke="transparent" points="768.04,-1254.39 768.04,-1314.39 1182.04,-1314.39 1182.04,-1254.39 768.04,-1254.39"/>
<polygon fill="none" stroke="#29235c" points="768.04,-1254.39 768.04,-1314.39 1182.04,-1314.39 1182.04,-1254.39 768.04,-1254.39"/>
<text text-anchor="start" x="870.12" y="-1275.59" font-family="Helvetica,sans-Serif" font-weight="bold" font-size="32.00" fill="#ffffff"> &#160;&#160;&#160;&#160;&#160;&#160;Ticket &#160;&#160;&#160;&#160;&#160;&#160;</text>
<polygon fill="#e7e2dd" stroke="transparent" points="768.04,-1194.39 768.04,-1254.39 1182.04,-1254.39 1182.04,-1194.39 768.04,-1194.39"/>
<polygon fill="none" stroke="#29235c" points="768.04,-1194.39 768.04,-1254.39 1182.04,-1254.39 1182.04,-1194.39 768.04,-1194.39"/>
<text text-anchor="start" x="779.04" y="-1215.59" font-family="Helvetica,sans-Serif" font-weight="bold" font-size="32.00" fill="#29235c">id</text>
<text text-anchor="start" x="803.93" y="-1215.59" font-family="Helvetica,sans-Serif" font-size="32.00" fill="#29235c"> &#160;&#160;&#160;</text>
<text text-anchor="start" x="1028.82" y="-1215.59" font-family="Helvetica,sans-Serif" font-style="italic" font-size="32.00" fill="#29235c">INTEGER</text>
<polygon fill="#e7e2dd" stroke="transparent" points="768.04,-1134.39 768.04,-1194.39 1182.04,-1194.39 1182.04,-1134.39 768.04,-1134.39"/>
<polygon fill="none" stroke="#29235c" points="768.04,-1134.39 768.04,-1194.39 1182.04,-1194.39 1182.04,-1134.39 768.04,-1134.39"/>
<text text-anchor="start" x="778.79" y="-1154.59" font-family="Helvetica,sans-Serif" font-size="32.00" fill="#29235c">ticket_number &#160;&#160;&#160;</text>
<text text-anchor="start" x="1014.83" y="-1155.59" font-family="Helvetica,sans-Serif" font-style="italic" font-size="32.00" fill="#29235c">VARCHAR</text>
<polygon fill="#e7e2dd" stroke="transparent" points="768.04,-1074.39 768.04,-1134.39 1182.04,-1134.39 1182.04,-1074.39 768.04,-1074.39"/>
<polygon fill="none" stroke="#29235c" points="768.04,-1074.39 768.04,-1134.39 1182.04,-1134.39 1182.04,-1074.39 768.04,-1074.39"/>
<text text-anchor="start" x="779.04" y="-1094.59" font-family="Helvetica,sans-Serif" font-size="32.00" fill="#29235c">price &#160;&#160;&#160;</text>
<text text-anchor="start" x="1028.82" y="-1095.59" font-family="Helvetica,sans-Serif" font-style="italic" font-size="32.00" fill="#29235c">INTEGER</text>
<polygon fill="#e7e2dd" stroke="transparent" points="768.04,-1014.39 768.04,-1074.39 1182.04,-1074.39 1182.04,-1014.39 768.04,-1014.39"/>
<polygon fill="none" stroke="#29235c" points="768.04,-1014.39 768.04,-1074.39 1182.04,-1074.39 1182.04,-1014.39 768.04,-1014.39"/>
<text text-anchor="start" x="779.04" y="-1034.59" font-family="Helvetica,sans-Serif" font-size="32.00" fill="#29235c">passenger_id &#160;&#160;&#160;</text>
<text text-anchor="start" x="1028.82" y="-1035.59" font-family="Helvetica,sans-Serif" font-style="italic" font-size="32.00" fill="#29235c">INTEGER</text>
<polygon fill="#e7e2dd" stroke="transparent" points="768.04,-954.39 768.04,-1014.39 1182.04,-1014.39 1182.04,-954.39 768.04,-954.39"/>
<polygon fill="none" stroke="#29235c" points="768.04,-954.39 768.04,-1014.39 1182.04,-1014.39 1182.04,-954.39 768.04,-954.39"/>
<text text-anchor="start" x="779.04" y="-974.59" font-family="Helvetica,sans-Serif" font-size="32.00" fill="#29235c">flight_id &#160;&#160;&#160;</text>
<text text-anchor="start" x="1028.82" y="-975.59" font-family="Helvetica,sans-Serif" font-style="italic" font-size="32.00" fill="#29235c">INTEGER</text>
<polygon fill="none" stroke="#29235c" stroke-width="2" points="767.04,-953.39 767.04,-1315.39 1183.04,-1315.39 1183.04,-953.39 767.04,-953.39"/>
</g>
<!-- Booking&#45;&gt;Ticket -->
<!-- Booking&#45;&gt;Ticket -->
<g id="edge10" class="edge">
<title>Booking:e&#45;&gt;Ticket:w</title>
<path fill="none" stroke="#29235c" stroke-width="3" d="M548.73,-1044.39C670.92,-1044.39 643.04,-1214.34 756.73,-1223.96"/>
<polygon fill="#29235c" stroke="#29235c" stroke-width="3" points="756.9,-1227.47 767.04,-1224.39 757.19,-1220.48 756.9,-1227.47"/>
<text text-anchor="middle" x="760.82" y="-1195.59" font-family="Helvetica,sans-Serif" font-size="32.00" fill="#29235c">*</text>
<text text-anchor="middle" x="539.84" y="-1015.59" font-family="Helvetica,sans-Serif" font-size="32.00" fill="#29235c">1</text>
</g>
<!-- Ticket&#45;&gt;Flight -->
<!-- Ticket&#45;&gt;Flight -->
<g id="edge12" class="edge">
<title>Ticket:e&#45;&gt;Flight:w</title>
<path fill="none" stroke="#29235c" stroke-width="3" d="M1183.04,-984.39C1331.02,-984.39 1270.6,-1218.99 1408.82,-1229.99"/>
<polygon fill="#29235c" stroke="#29235c" stroke-width="3" points="1408.99,-1233.5 1419.12,-1230.39 1409.26,-1226.5 1408.99,-1233.5"/>
<text text-anchor="middle" x="1412.9" y="-1239.99" font-family="Helvetica,sans-Serif" font-size="32.00" fill="#29235c">*</text>
<text text-anchor="middle" x="1174.14" y="-955.59" font-family="Helvetica,sans-Serif" font-size="32.00" fill="#29235c">1</text>
</g>
<!-- Passenger -->
<g id="Passenger" class="node">
<title>Passenger</title>
<ellipse fill="none" stroke="black" stroke-width="0" cx="1636.12" cy="-650.39" rx="329.52" ry="214.92"/>
<polygon fill="#1d71b8" stroke="transparent" points="1405.12,-740.39 1405.12,-800.39 1867.12,-800.39 1867.12,-740.39 1405.12,-740.39"/>
<polygon fill="none" stroke="#29235c" points="1405.12,-740.39 1405.12,-800.39 1867.12,-800.39 1867.12,-740.39 1405.12,-740.39"/>
<text text-anchor="start" x="1497.4" y="-761.59" font-family="Helvetica,sans-Serif" font-weight="bold" font-size="32.00" fill="#ffffff"> &#160;&#160;&#160;&#160;&#160;&#160;Passenger &#160;&#160;&#160;&#160;&#160;&#160;</text>
<polygon fill="#e7e2dd" stroke="transparent" points="1405.12,-680.39 1405.12,-740.39 1867.12,-740.39 1867.12,-680.39 1405.12,-680.39"/>
<polygon fill="none" stroke="#29235c" points="1405.12,-680.39 1405.12,-740.39 1867.12,-740.39 1867.12,-680.39 1405.12,-680.39"/>
<text text-anchor="start" x="1416.12" y="-701.59" font-family="Helvetica,sans-Serif" font-weight="bold" font-size="32.00" fill="#29235c">id</text>
<text text-anchor="start" x="1441.01" y="-701.59" font-family="Helvetica,sans-Serif" font-size="32.00" fill="#29235c"> &#160;&#160;&#160;</text>
<text text-anchor="start" x="1713.9" y="-701.59" font-family="Helvetica,sans-Serif" font-style="italic" font-size="32.00" fill="#29235c">INTEGER</text>
<polygon fill="#e7e2dd" stroke="transparent" points="1405.12,-620.39 1405.12,-680.39 1867.12,-680.39 1867.12,-620.39 1405.12,-620.39"/>
<polygon fill="none" stroke="#29235c" points="1405.12,-620.39 1405.12,-680.39 1867.12,-680.39 1867.12,-620.39 1405.12,-620.39"/>
<text text-anchor="start" x="1416.12" y="-640.59" font-family="Helvetica,sans-Serif" font-size="32.00" fill="#29235c">first_name &#160;&#160;&#160;</text>
<text text-anchor="start" x="1699.69" y="-641.59" font-family="Helvetica,sans-Serif" font-style="italic" font-size="32.00" fill="#29235c">VARCHAR</text>
<polygon fill="#e7e2dd" stroke="transparent" points="1405.12,-560.39 1405.12,-620.39 1867.12,-620.39 1867.12,-560.39 1405.12,-560.39"/>
<polygon fill="none" stroke="#29235c" points="1405.12,-560.39 1405.12,-620.39 1867.12,-620.39 1867.12,-560.39 1405.12,-560.39"/>
<text text-anchor="start" x="1416.12" y="-580.59" font-family="Helvetica,sans-Serif" font-size="32.00" fill="#29235c">last_name &#160;&#160;&#160;</text>
<text text-anchor="start" x="1699.69" y="-581.59" font-family="Helvetica,sans-Serif" font-style="italic" font-size="32.00" fill="#29235c">VARCHAR</text>
<polygon fill="#e7e2dd" stroke="transparent" points="1405.12,-500.39 1405.12,-560.39 1867.12,-560.39 1867.12,-500.39 1405.12,-500.39"/>
<polygon fill="none" stroke="#29235c" points="1405.12,-500.39 1405.12,-560.39 1867.12,-560.39 1867.12,-500.39 1405.12,-500.39"/>
<text text-anchor="start" x="1415.86" y="-520.59" font-family="Helvetica,sans-Serif" font-size="32.00" fill="#29235c">passport_number &#160;&#160;&#160;</text>
<text text-anchor="start" x="1699.91" y="-521.59" font-family="Helvetica,sans-Serif" font-style="italic" font-size="32.00" fill="#29235c">VARCHAR</text>
<polygon fill="none" stroke="#29235c" stroke-width="2" points="1404.12,-499.39 1404.12,-801.39 1868.12,-801.39 1868.12,-499.39 1404.12,-499.39"/>
</g>
<!-- Ticket&#45;&gt;Passenger -->
<!-- Ticket&#45;&gt;Passenger -->
<g id="edge14" class="edge">
<title>Ticket:e&#45;&gt;Passenger:w</title>
<path fill="none" stroke="#29235c" stroke-width="3" d="M1183.04,-1044.39C1357.58,-1044.39 1231.25,-723.31 1394.04,-710.76"/>
<polygon fill="#29235c" stroke="#29235c" stroke-width="3" points="1394.26,-714.26 1404.12,-710.39 1394,-707.26 1394.26,-714.26"/>
<text text-anchor="middle" x="1397.9" y="-681.59" font-family="Helvetica,sans-Serif" font-size="32.00" fill="#29235c">*</text>
<text text-anchor="middle" x="1174.14" y="-1015.59" font-family="Helvetica,sans-Serif" font-size="32.00" fill="#29235c">1</text>
</g>
<!-- Gate -->
<g id="Gate" class="node">
<title>Gate</title>
<ellipse fill="none" stroke="black" stroke-width="0" cx="1636.12" cy="-2121.39" rx="287.17" ry="172.57"/>
<polygon fill="#1d71b8" stroke="transparent" points="1435.12,-2181.39 1435.12,-2241.39 1837.12,-2241.39 1837.12,-2181.39 1435.12,-2181.39"/>
<polygon fill="none" stroke="#29235c" points="1435.12,-2181.39 1435.12,-2241.39 1837.12,-2241.39 1837.12,-2181.39 1435.12,-2181.39"/>
<text text-anchor="start" x="1539.19" y="-2202.59" font-family="Helvetica,sans-Serif" font-weight="bold" font-size="32.00" fill="#ffffff"> &#160;&#160;&#160;&#160;&#160;&#160;Gate &#160;&#160;&#160;&#160;&#160;&#160;</text>
<polygon fill="#e7e2dd" stroke="transparent" points="1435.12,-2121.39 1435.12,-2181.39 1837.12,-2181.39 1837.12,-2121.39 1435.12,-2121.39"/>
<polygon fill="none" stroke="#29235c" points="1435.12,-2121.39 1435.12,-2181.39 1837.12,-2181.39 1837.12,-2121.39 1435.12,-2121.39"/>
<text text-anchor="start" x="1446.12" y="-2142.59" font-family="Helvetica,sans-Serif" font-weight="bold" font-size="32.00" fill="#29235c">id</text>
<text text-anchor="start" x="1471.01" y="-2142.59" font-family="Helvetica,sans-Serif" font-size="32.00" fill="#29235c"> &#160;&#160;&#160;</text>
<text text-anchor="start" x="1683.9" y="-2142.59" font-family="Helvetica,sans-Serif" font-style="italic" font-size="32.00" fill="#29235c">INTEGER</text>
<polygon fill="#e7e2dd" stroke="transparent" points="1435.12,-2061.39 1435.12,-2121.39 1837.12,-2121.39 1837.12,-2061.39 1435.12,-2061.39"/>
<polygon fill="none" stroke="#29235c" points="1435.12,-2061.39 1435.12,-2121.39 1837.12,-2121.39 1837.12,-2061.39 1435.12,-2061.39"/>
<text text-anchor="start" x="1446.08" y="-2081.59" font-family="Helvetica,sans-Serif" font-size="32.00" fill="#29235c">gate_number &#160;&#160;&#160;</text>
<text text-anchor="start" x="1669.91" y="-2082.59" font-family="Helvetica,sans-Serif" font-style="italic" font-size="32.00" fill="#29235c">VARCHAR</text>
<polygon fill="#e7e2dd" stroke="transparent" points="1435.12,-2001.39 1435.12,-2061.39 1837.12,-2061.39 1837.12,-2001.39 1435.12,-2001.39"/>
<polygon fill="none" stroke="#29235c" points="1435.12,-2001.39 1435.12,-2061.39 1837.12,-2061.39 1837.12,-2001.39 1435.12,-2001.39"/>
<text text-anchor="start" x="1446.12" y="-2021.59" font-family="Helvetica,sans-Serif" font-size="32.00" fill="#29235c">airport_id &#160;&#160;&#160;</text>
<text text-anchor="start" x="1683.9" y="-2022.59" font-family="Helvetica,sans-Serif" font-style="italic" font-size="32.00" fill="#29235c">INTEGER</text>
<polygon fill="none" stroke="#29235c" stroke-width="2" points="1434.12,-2000.39 1434.12,-2242.39 1838.12,-2242.39 1838.12,-2000.39 1434.12,-2000.39"/>
</g>
<!-- Gate&#45;&gt;Airport -->
<!-- Gate&#45;&gt;Airport -->
<g id="edge16" class="edge">
<title>Gate:e&#45;&gt;Airport:w</title>
<path fill="none" stroke="#29235c" stroke-width="3" d="M1838.12,-2031.39C1908,-2031.39 1915.81,-1988.39 1965.63,-1939.39 2032.72,-1873.4 2001.89,-1771.11 2087,-1763.8"/>
<polygon fill="#29235c" stroke="#29235c" stroke-width="3" points="2087.22,-1767.29 2097.07,-1763.39 2086.94,-1760.3 2087.22,-1767.29"/>
<text text-anchor="middle" x="2090.85" y="-1734.59" font-family="Helvetica,sans-Serif" font-size="32.00" fill="#29235c">*</text>
<text text-anchor="middle" x="1829.23" y="-2040.99" font-family="Helvetica,sans-Serif" font-size="32.00" fill="#29235c">1</text>
</g>
<!-- Luggage -->
<g id="Luggage" class="node">
<title>Luggage</title>
<ellipse fill="none" stroke="black" stroke-width="0" cx="975.04" cy="-680.39" rx="279.11" ry="172.57"/>
<polygon fill="#1d71b8" stroke="transparent" points="780.04,-740.39 780.04,-800.39 1171.04,-800.39 1171.04,-740.39 780.04,-740.39"/>
<polygon fill="none" stroke="#29235c" points="780.04,-740.39 780.04,-800.39 1171.04,-800.39 1171.04,-740.39 780.04,-740.39"/>
<text text-anchor="start" x="851.03" y="-761.59" font-family="Helvetica,sans-Serif" font-weight="bold" font-size="32.00" fill="#ffffff"> &#160;&#160;&#160;&#160;&#160;&#160;Luggage &#160;&#160;&#160;&#160;&#160;&#160;</text>
<polygon fill="#e7e2dd" stroke="transparent" points="780.04,-680.39 780.04,-740.39 1171.04,-740.39 1171.04,-680.39 780.04,-680.39"/>
<polygon fill="none" stroke="#29235c" points="780.04,-680.39 780.04,-740.39 1171.04,-740.39 1171.04,-680.39 780.04,-680.39"/>
<text text-anchor="start" x="791.04" y="-701.59" font-family="Helvetica,sans-Serif" font-weight="bold" font-size="32.00" fill="#29235c">id</text>
<text text-anchor="start" x="815.93" y="-701.59" font-family="Helvetica,sans-Serif" font-size="32.00" fill="#29235c"> &#160;&#160;&#160;</text>
<text text-anchor="start" x="1017.82" y="-701.59" font-family="Helvetica,sans-Serif" font-style="italic" font-size="32.00" fill="#29235c">INTEGER</text>
<polygon fill="#e7e2dd" stroke="transparent" points="780.04,-620.39 780.04,-680.39 1171.04,-680.39 1171.04,-620.39 780.04,-620.39"/>
<polygon fill="none" stroke="#29235c" points="780.04,-620.39 780.04,-680.39 1171.04,-680.39 1171.04,-620.39 780.04,-620.39"/>
<text text-anchor="start" x="791.04" y="-640.59" font-family="Helvetica,sans-Serif" font-size="32.00" fill="#29235c">weight &#160;&#160;&#160;</text>
<text text-anchor="start" x="1017.82" y="-641.59" font-family="Helvetica,sans-Serif" font-style="italic" font-size="32.00" fill="#29235c">INTEGER</text>
<polygon fill="#e7e2dd" stroke="transparent" points="780.04,-560.39 780.04,-620.39 1171.04,-620.39 1171.04,-560.39 780.04,-560.39"/>
<polygon fill="none" stroke="#29235c" points="780.04,-560.39 780.04,-620.39 1171.04,-620.39 1171.04,-560.39 780.04,-560.39"/>
<text text-anchor="start" x="790.72" y="-580.59" font-family="Helvetica,sans-Serif" font-size="32.00" fill="#29235c">passenger_id &#160;&#160;&#160;</text>
<text text-anchor="start" x="1017.93" y="-581.59" font-family="Helvetica,sans-Serif" font-style="italic" font-size="32.00" fill="#29235c">INTEGER</text>
<polygon fill="none" stroke="#29235c" stroke-width="2" points="778.54,-559.39 778.54,-801.39 1171.54,-801.39 1171.54,-559.39 778.54,-559.39"/>
</g>
<!-- Luggage&#45;&gt;Passenger -->
<!-- Luggage&#45;&gt;Passenger -->
<g id="edge18" class="edge">
<title>Luggage:e&#45;&gt;Passenger:w</title>
<path fill="none" stroke="#29235c" stroke-width="3" d="M1172.04,-590.39C1284.64,-590.39 1287.9,-703.23 1393.89,-710.06"/>
<polygon fill="#29235c" stroke="#29235c" stroke-width="3" points="1394.01,-713.57 1404.12,-710.39 1394.24,-706.57 1394.01,-713.57"/>
<text text-anchor="middle" x="1397.9" y="-719.99" font-family="Helvetica,sans-Serif" font-size="32.00" fill="#29235c">*</text>
<text text-anchor="middle" x="1163.14" y="-561.59" font-family="Helvetica,sans-Serif" font-size="32.00" fill="#29235c">1</text>
</g>
<!-- Staff -->
<g id="Staff" class="node">
<title>Staff</title>
<ellipse fill="none" stroke="black" stroke-width="0" cx="1636.12" cy="-1673.39" rx="258.6" ry="257.27"/>
<polygon fill="#1d71b8" stroke="transparent" points="1455.12,-1793.39 1455.12,-1853.39 1817.12,-1853.39 1817.12,-1793.39 1455.12,-1793.39"/>
<polygon fill="none" stroke="#29235c" points="1455.12,-1793.39 1455.12,-1853.39 1817.12,-1853.39 1817.12,-1793.39 1455.12,-1793.39"/>
<text text-anchor="start" x="1540.97" y="-1814.59" font-family="Helvetica,sans-Serif" font-weight="bold" font-size="32.00" fill="#ffffff"> &#160;&#160;&#160;&#160;&#160;&#160;Staff &#160;&#160;&#160;&#160;&#160;&#160;</text>
<polygon fill="#e7e2dd" stroke="transparent" points="1455.12,-1733.39 1455.12,-1793.39 1817.12,-1793.39 1817.12,-1733.39 1455.12,-1733.39"/>
<polygon fill="none" stroke="#29235c" points="1455.12,-1733.39 1455.12,-1793.39 1817.12,-1793.39 1817.12,-1733.39 1455.12,-1733.39"/>
<text text-anchor="start" x="1466.12" y="-1754.59" font-family="Helvetica,sans-Serif" font-weight="bold" font-size="32.00" fill="#29235c">id</text>
<text text-anchor="start" x="1491.01" y="-1754.59" font-family="Helvetica,sans-Serif" font-size="32.00" fill="#29235c"> &#160;&#160;&#160;</text>
<text text-anchor="start" x="1663.9" y="-1754.59" font-family="Helvetica,sans-Serif" font-style="italic" font-size="32.00" fill="#29235c">INTEGER</text>
<polygon fill="#e7e2dd" stroke="transparent" points="1455.12,-1673.39 1455.12,-1733.39 1817.12,-1733.39 1817.12,-1673.39 1455.12,-1673.39"/>
<polygon fill="none" stroke="#29235c" points="1455.12,-1673.39 1455.12,-1733.39 1817.12,-1733.39 1817.12,-1673.39 1455.12,-1673.39"/>
<text text-anchor="start" x="1465.66" y="-1693.59" font-family="Helvetica,sans-Serif" font-size="32.00" fill="#29235c">first_name &#160;&#160;&#160;</text>
<text text-anchor="start" x="1649.91" y="-1694.59" font-family="Helvetica,sans-Serif" font-style="italic" font-size="32.00" fill="#29235c">VARCHAR</text>
<polygon fill="#e7e2dd" stroke="transparent" points="1455.12,-1613.39 1455.12,-1673.39 1817.12,-1673.39 1817.12,-1613.39 1455.12,-1613.39"/>
<polygon fill="none" stroke="#29235c" points="1455.12,-1613.39 1455.12,-1673.39 1817.12,-1673.39 1817.12,-1613.39 1455.12,-1613.39"/>
<text text-anchor="start" x="1466.12" y="-1633.59" font-family="Helvetica,sans-Serif" font-size="32.00" fill="#29235c">last_name &#160;&#160;&#160;</text>
<text text-anchor="start" x="1649.91" y="-1634.59" font-family="Helvetica,sans-Serif" font-style="italic" font-size="32.00" fill="#29235c">VARCHAR</text>
<polygon fill="#e7e2dd" stroke="transparent" points="1455.12,-1553.39 1455.12,-1613.39 1817.12,-1613.39 1817.12,-1553.39 1455.12,-1553.39"/>
<polygon fill="none" stroke="#29235c" points="1455.12,-1553.39 1455.12,-1613.39 1817.12,-1613.39 1817.12,-1553.39 1455.12,-1553.39"/>
<text text-anchor="start" x="1466.12" y="-1573.59" font-family="Helvetica,sans-Serif" font-size="32.00" fill="#29235c">role &#160;&#160;&#160;</text>
<text text-anchor="start" x="1649.69" y="-1574.59" font-family="Helvetica,sans-Serif" font-style="italic" font-size="32.00" fill="#29235c">VARCHAR</text>
<polygon fill="#e7e2dd" stroke="transparent" points="1455.12,-1493.39 1455.12,-1553.39 1817.12,-1553.39 1817.12,-1493.39 1455.12,-1493.39"/>
<polygon fill="none" stroke="#29235c" points="1455.12,-1493.39 1455.12,-1553.39 1817.12,-1553.39 1817.12,-1493.39 1455.12,-1493.39"/>
<text text-anchor="start" x="1466.12" y="-1513.59" font-family="Helvetica,sans-Serif" font-size="32.00" fill="#29235c">airport_id &#160;&#160;&#160;</text>
<text text-anchor="start" x="1663.9" y="-1514.59" font-family="Helvetica,sans-Serif" font-style="italic" font-size="32.00" fill="#29235c">INTEGER</text>
<polygon fill="none" stroke="#29235c" stroke-width="2" points="1454.12,-1492.39 1454.12,-1854.39 1818.12,-1854.39 1818.12,-1492.39 1454.12,-1492.39"/>
</g>
<!-- Staff&#45;&gt;Airport -->
<!-- Staff&#45;&gt;Airport -->
<g id="edge20" class="edge">
<title>Staff:e&#45;&gt;Airport:w</title>
<path fill="none" stroke="#29235c" stroke-width="3" d="M1818.12,-1523.39C1978.16,-1523.39 1935.49,-1753.19 2086.82,-1763.06"/>
<polygon fill="#29235c" stroke="#29235c" stroke-width="3" points="2086.97,-1766.57 2097.07,-1763.39 2087.19,-1759.57 2086.97,-1766.57"/>
<text text-anchor="middle" x="2103.3" y="-1772.99" font-family="Helvetica,sans-Serif" font-size="32.00" fill="#29235c">*</text>
<text text-anchor="middle" x="1809.23" y="-1532.99" font-family="Helvetica,sans-Serif" font-size="32.00" fill="#29235c">1</text>
</g>
</g>
</svg>
